<?xml version="1.0" encoding="utf-8"?>
<!-- Generator: Adobe Illustrator 21.1.0, SVG Export Plug-In . SVG Version: 6.00 Build 0)  -->
<svg version="1.1" id="Слой_1" xmlns="http://www.w3.org/2000/svg" xmlns:xlink="http://www.w3.org/1999/xlink" x="0px" y="0px"
	 width="22.3px" height="22.3px" viewBox="0 0 22.3 22.3" style="enable-background:new 0 0 22.3 22.3;" xml:space="preserve">
<style type="text/css">
	.st0{fill:url(#SVGID_1_);}
	.st1{fill:#FFFFFF;}
</style>
<g>
	
		<linearGradient id="SVGID_1_" gradientUnits="userSpaceOnUse" x1="11.1667" y1="22.7658" x2="11.1667" y2="3.5675" gradientTransform="matrix(1 0 0 -1 0 24.3333)">
		<stop  offset="0" style="stop-color:#373B45"/>
		<stop  offset="1" style="stop-color:#181A1D"/>
	</linearGradient>
	<rect x="1.6" y="1.6" class="st0" width="19.2" height="19.2"/>
	<path class="st1" d="M7.9,12.5v-2.1c0-0.6-0.3-0.9-0.9-0.9c-0.5,0-0.9,0.3-1,0.5C5.9,9.7,5.6,9.5,5.2,9.5c-0.5,0-0.9,0.3-1,0.5V9.6
		H3.4v3h0.8v-2c0.1-0.2,0.4-0.4,0.6-0.4c0.3,0,0.5,0.2,0.5,0.5v1.9H6v-2c0.1-0.2,0.3-0.3,0.6-0.3c0.3,0,0.5,0.2,0.5,0.5v1.9H7.9z
		 M10.1,12.6c-1,0-1.6-0.7-1.6-1.6c0-0.8,0.6-1.6,1.6-1.6c1,0,1.6,0.7,1.6,1.6C11.7,11.9,11.1,12.6,10.1,12.6z M10.1,11.9
		c0.5,0,0.8-0.4,0.8-0.9c0-0.5-0.3-0.9-0.8-0.9c-0.5,0-0.8,0.4-0.8,0.9C9.3,11.5,9.6,11.9,10.1,11.9z M15.2,12.5v-2.1
		c0-0.6-0.3-0.9-1-0.9c-0.5,0-0.9,0.2-1.1,0.5V9.6h-0.8v3h0.8v-2c0.1-0.2,0.4-0.4,0.7-0.4c0.3,0,0.6,0.1,0.6,0.6v1.8H15.2z
		 M17.4,12.6c-1,0-1.6-0.7-1.6-1.6c0-0.8,0.6-1.6,1.6-1.6c1,0,1.6,0.7,1.6,1.6C19,11.9,18.4,12.6,17.4,12.6z M17.4,11.9
		c0.5,0,0.8-0.4,0.8-0.9c0-0.5-0.3-0.9-0.8-0.9c-0.5,0-0.8,0.4-0.8,0.9C16.6,11.5,16.9,11.9,17.4,11.9z"/>
</g>
</svg>
