<?xml version="1.0" encoding="utf-8"?>
<!-- Generator: Adobe Illustrator 21.1.0, SVG Export Plug-In . SVG Version: 6.00 Build 0)  -->
<svg version="1.1" id="Шар_1" xmlns="http://www.w3.org/2000/svg" xmlns:xlink="http://www.w3.org/1999/xlink" x="0px" y="0px"
	 width="73px" height="73px" viewBox="0 0 73 73" style="enable-background:new 0 0 73 73;" xml:space="preserve">
<style type="text/css">
	.st0{fill:none;stroke:#064F78;stroke-miterlimit:10;}
</style>
<circle class="st0" cx="36.5" cy="36.5" r="36"/>
<path class="st0" d="M21.5,36.7c0,0,1.1-1.1,3.8-4.1c1.2-1.3,2.3-2.9,5.4-5c3.1-2.2,3.9-4.6,3.7-7.8s4.9-2,4.4,3.2
	c-0.5,5.3-4.3,8.3-0.5,9c0,0,5.1,0,6.9,0c7.4,0,4.9,4.5,4.9,4.5c2,1.8,1.8,3.9,0.1,5.2c0,0,2.7,3.7-1.3,5.7c0,0,2.7,3.7-1.6,4.2
	c-4.4,0.5-13.9,0.6-17.4-0.2c-2.1-0.5-2.4-1.9-4-2.4c-1-0.3-3.4-0.1-3.4-0.1"/>
</svg>
