<?xml version="1.0" encoding="utf-8"?>
<!-- Generator: Adobe Illustrator 21.1.0, SVG Export Plug-In . SVG Version: 6.00 Build 0)  -->
<svg version="1.1" id="Шар_1" xmlns="http://www.w3.org/2000/svg" xmlns:xlink="http://www.w3.org/1999/xlink" x="0px" y="0px"
	 width="73px" height="73px" viewBox="0 0 73 73" style="enable-background:new 0 0 73 73;" xml:space="preserve">
<style type="text/css">
	.st0{fill:none;stroke:#064F78;stroke-width:0.9908;stroke-miterlimit:10;}
	.st1{fill:none;stroke:#064F78;stroke-miterlimit:10;}
</style>
<circle class="st0" cx="36.5" cy="36.5" r="36"/>
<path class="st1" d="M56.9,38.1c-2.8-2.1-4.8,1.1-4.8,1.1s-4,5.5-5.1,5.8c-1.5,0.4-1-1.6-1-1.6c0.8-4.7,6.5-10.2,6.1-16.2
	c-0.4-6.7-9.7-7.3-13.9-7.3c0,0-1.3,0-2.4,0c-0.6,0-0.9,0-0.9,0c-4.2,0-13.5,0.6-13.9,7.3c-0.4,6,5.3,11.4,6.1,16.1c0,0,0.5,2-1,1.6
	c-1.1-0.3-5.1-5.8-5.1-5.8s-2.1-3.2-4.8-1.1c0,0-2.4,1.7,0.3,4.8c2,2.3,4.7,5.8,6.5,8.1c0.7,0.9,1.6,1.9,4.2,1.9
	c2.2,0,14.6,0,18.4,0c2.5,0,4-1.1,4.7-1.9c1.8-2.3,4.5-5.8,6.5-8.1C59.3,39.9,56.9,38.1,56.9,38.1z"/>
<line class="st1" x1="26.5" y1="45" x2="46.5" y2="45"/>
</svg>
