<?xml version="1.0" encoding="utf-8"?>
<!-- Generator: Adobe Illustrator 21.1.0, SVG Export Plug-In . SVG Version: 6.00 Build 0)  -->
<svg version="1.1" id="Шар_1" xmlns="http://www.w3.org/2000/svg" xmlns:xlink="http://www.w3.org/1999/xlink" x="0px" y="0px"
	 width="73px" height="73px" viewBox="0 0 73 73" style="enable-background:new 0 0 73 73;" xml:space="preserve">
<style type="text/css">
	.st0{fill:none;stroke:#064F78;stroke-width:0.9908;stroke-miterlimit:10;}
</style>
<g>
	<circle class="st0" cx="36.5" cy="36.5" r="36"/>
	<g>
		<path class="st0" d="M41.1,17.1L26,32.2c0,0,2.6,3.2,1.9,6.9c-0.7,3.8-4.5,3.4-7.7,6.1c-4.6,4-3.2,8.3-2.5,9.7
			c1.4,0.7,5.8,2.3,9.9-2.3c2.8-3.1,2.4-6.9,6.2-7.5c3.8-0.6,6.9,2.1,6.9,2.1l15.2-15L41.1,17.1z"/>
		<line class="st0" x1="31.3" y1="26.9" x2="46.3" y2="41.9"/>
		<path class="st0" d="M35.2,23c0,0-0.3,2.2,1.7,2.5s4-2.8,5.8-1.6s-1.1,4.7-0.3,6.1c1,1.6,3.1,0.1,4.8,0.5s1.3,2,0.7,4.4
			c-0.3,1.1,0,3.4,3.7,1.8"/>
		<circle class="st0" cx="21.3" cy="51.3" r="0.8"/>
	</g>
</g>
</svg>
