<svg width="24" height="24" viewBox="0 0 24 24" fill="none" xmlns="http://www.w3.org/2000/svg">
<path d="M8.16086 23.0758H15.8409C17.5716 23.0739 19.2309 22.412 20.4547 21.2352C21.6785 20.0585 22.3669 18.463 22.3689 16.7988V14.9527C22.3722 14.2095 22.1796 13.4776 21.809 12.8255C21.4384 12.1733 20.9018 11.6221 20.2496 11.2234L16.7674 2.57237C16.5742 2.08484 16.2309 1.66561 15.7833 1.37069C15.3357 1.07577 14.8052 0.919204 14.2626 0.92191H9.7391C9.19655 0.919176 8.66606 1.07569 8.21848 1.37054C7.77089 1.66539 7.42753 2.08454 7.23426 2.572L3.75215 11.2234C3.09987 11.6221 2.56334 12.1733 2.19272 12.8255C1.8221 13.4776 1.62947 14.2095 1.63286 14.9527V16.7988C1.63479 18.463 2.32318 20.0585 3.547 21.2352C4.77082 22.412 6.43012 23.0739 8.16086 23.0758ZM2.40086 14.9527C2.3979 14.315 2.568 13.6876 2.89434 13.1325C3.22069 12.5774 3.692 12.1137 4.26172 11.7873C4.85936 11.4419 5.5436 11.2598 6.24086 11.2604C6.3427 11.2604 6.44037 11.2215 6.51239 11.1522C6.5844 11.083 6.62486 10.9891 6.62486 10.8911C6.62486 10.7932 6.5844 10.6993 6.51239 10.6301C6.44037 10.5608 6.3427 10.5219 6.24086 10.5219C5.73628 10.5248 5.23564 10.6075 4.759 10.7667L7.95042 2.83822C8.08846 2.49018 8.33367 2.19093 8.65329 1.98046C8.97291 1.76999 9.35171 1.65832 9.7391 1.66037H14.2626C14.6501 1.6583 15.0289 1.77 15.3486 1.98055C15.6682 2.19109 15.9134 2.49045 16.0513 2.83859L19.2427 10.7667C18.7661 10.6075 18.2654 10.5248 17.7609 10.5219C17.659 10.5219 17.5613 10.5608 17.4893 10.6301C17.4173 10.6993 17.3769 10.7932 17.3769 10.8911C17.3769 10.9891 17.4173 11.083 17.4893 11.1522C17.5613 11.2215 17.659 11.2604 17.7609 11.2604C18.4579 11.2597 19.142 11.4417 19.7396 11.7869C20.3095 12.1133 20.7809 12.577 21.1073 13.1322C21.4337 13.6874 21.6038 14.3149 21.6009 14.9527V16.7988C21.5991 18.2672 20.9917 19.675 19.9119 20.7133C18.832 21.7516 17.368 22.3356 15.8409 22.3373H8.16086C6.63374 22.3356 5.16966 21.7516 4.08983 20.7133C3.00999 19.675 2.40258 18.2672 2.40086 16.7988V14.9527Z" stroke="#F94754"/>
<path d="M12.0013 15.6907C17.6495 15.6907 18.7505 14.2057 18.8572 14.0362C18.9085 13.9547 18.9245 13.8571 18.9018 13.7643C18.879 13.6716 18.8193 13.5912 18.7355 13.5403C18.6507 13.4888 18.5484 13.4707 18.4501 13.4898C18.3517 13.5089 18.2648 13.5638 18.2075 13.643C18.1998 13.6537 17.5163 14.531 14.3917 14.843C14.4524 14.4828 14.5912 14.1388 14.7991 13.8335C15.0069 13.5282 15.2792 13.2683 15.5982 13.0707C15.6899 13.0278 15.7601 12.9517 15.7934 12.8591C15.8267 12.7665 15.8204 12.6649 15.7758 12.5768C15.7313 12.4887 15.6521 12.4212 15.5558 12.3892C15.4595 12.3571 15.3539 12.3632 15.2622 12.406C15.2054 12.4326 13.9328 13.0518 13.5949 14.9072C13.1126 14.9353 12.585 14.9523 12.0013 14.9523C11.4069 14.9523 10.87 14.9345 10.3808 14.9046C10.0433 13.0511 8.77031 12.4308 8.71309 12.4049C8.62143 12.3618 8.51569 12.3553 8.41912 12.3871C8.32255 12.4189 8.24306 12.4863 8.19815 12.5744C8.15324 12.6625 8.14657 12.7642 8.17963 12.8571C8.21268 12.9499 8.28275 13.0264 8.37441 13.0696C8.69423 13.2667 8.96725 13.5264 9.17567 13.8317C9.38409 14.1371 9.52323 14.4813 9.58401 14.8419C6.48052 14.5276 5.80391 13.6566 5.80122 13.654C5.77604 13.6107 5.74204 13.5727 5.70126 13.5424C5.66047 13.512 5.61373 13.4898 5.56382 13.4771C5.51392 13.4645 5.46188 13.4617 5.41082 13.4688C5.35975 13.4759 5.3107 13.4929 5.2666 13.5187C5.2225 13.5444 5.18426 13.5785 5.15415 13.6188C5.12405 13.6591 5.1027 13.7048 5.09138 13.7532C5.08006 13.8016 5.07901 13.8517 5.08828 13.9005C5.09755 13.9494 5.11696 13.9959 5.14535 14.0373C5.2521 14.2057 6.35303 15.6907 12.0013 15.6907Z" stroke="#F94754"/>
</svg>
