<svg width="24" height="24" viewBox="0 0 24 24" fill="none" xmlns="http://www.w3.org/2000/svg">
<path fill-rule="evenodd" clip-rule="evenodd" d="M21.5295 5.29434C22.0175 5.78669 22.1739 6.47144 22.015 7.10708L22.0135 7.11307L21.6826 8.37036C22.1689 10.8981 22.1706 13.4044 21.73 15.7765L22.0117 16.8598C22.2079 17.527 22.0005 18.2143 21.5235 18.6914C21.0307 19.1841 20.3429 19.3425 19.7046 19.1829L19.6959 19.1807L18.5414 18.8698C16.3706 19.1286 14.175 19.2698 11.9779 19.2698C9.78125 19.2698 7.5861 19.1287 5.41569 18.8699L4.2752 19.183C3.63694 19.3426 2.94913 19.1841 2.45635 18.6914C1.96357 18.1986 1.80527 17.5108 1.96483 16.8725L1.96741 16.8622L2.29728 15.6531C1.83461 13.1546 1.80972 10.6717 2.2731 8.27426L1.96844 7.1209C1.77168 6.4533 1.97909 5.76552 2.45635 5.28826C2.94913 4.79548 3.63691 4.63718 4.27517 4.79674L4.28419 4.799L5.70421 5.18227C9.87963 4.71241 14.1701 4.71231 18.3227 5.1821L19.7124 4.80106C20.3739 4.60514 21.0681 4.80457 21.5295 5.29434ZM3.9018 6.38805C3.80423 6.36165 3.70353 6.39129 3.64346 6.45137C3.58327 6.51156 3.55363 6.61252 3.58029 6.71026L3.9579 8.09485V8.35682L3.9476 8.40678C3.48184 10.6657 3.48034 13.0714 3.94907 15.5323L3.9579 15.5786V15.6978C3.9579 15.7527 3.95089 15.8025 3.94035 15.8464C3.93285 15.8776 3.92401 15.9039 3.91698 15.9228L3.55744 17.2891L3.55629 17.2934C3.52963 17.3911 3.55927 17.4921 3.61946 17.5523C3.67965 17.6124 3.78061 17.6421 3.87835 17.6154L3.88441 17.6138L5.24214 17.2618H5.45737L5.48859 17.2658C9.81497 17.8125 14.2128 17.8125 18.5392 17.2658L18.5704 17.2618H18.7845L20.1735 17.6154C20.2712 17.642 20.3722 17.6124 20.4323 17.5523C20.4925 17.4921 20.5222 17.3911 20.4955 17.2934L20.4951 17.2918L20.1769 16.11C20.1095 15.9693 20.1167 15.8393 20.1178 15.8201C20.1179 15.8189 20.1179 15.8181 20.1179 15.8178V15.6973L20.1272 15.6497C20.5696 13.391 20.5482 10.9835 20.0786 8.49452L20.0699 8.44857V8.19122L20.4713 6.71095C20.498 6.61321 20.4685 6.51155 20.4083 6.45137C20.3482 6.39118 20.2472 6.36154 20.1495 6.3882L18.8125 6.75076C18.7368 6.7924 18.6629 6.81309 18.6043 6.82375C18.5248 6.83821 18.4475 6.83794 18.4162 6.83783C18.4138 6.83782 18.4117 6.83781 18.4099 6.83781H18.38L18.3503 6.83425C14.2018 6.33643 9.91032 6.33498 5.73676 6.83005C5.52957 6.87833 5.35137 6.81904 5.22968 6.75436L3.9018 6.38805C3.90162 6.388 3.90198 6.3881 3.9018 6.38805Z" fill="#F94754"/>
</svg>
