<svg width="24" height="24" viewBox="0 0 24 24" fill="none" xmlns="http://www.w3.org/2000/svg">
<path d="M23.2126 13.9869C23.1976 13.6456 23.1826 13.3044 23.1789 12.9631L23.1751 12.6106C23.1714 11.9094 23.1639 11.1819 22.9501 10.4806C22.6126 9.36311 21.7951 8.46686 21.0564 7.71311C20.0064 6.64436 18.8926 5.61311 17.7414 4.64936C17.1639 4.16561 16.5339 3.67061 15.7914 3.40061L15.7689 3.39311C15.0414 3.13436 14.2801 3.11561 13.5414 3.09686L13.2864 3.08936C12.9939 3.08186 12.6976 3.06686 12.4014 3.05561C10.6689 2.97686 8.87635 2.89811 7.2826 3.67436C6.43885 4.08686 5.7226 4.71311 5.0776 5.33186L4.7026 5.68811C3.4951 6.82811 2.1301 8.12186 1.4776 9.62561C0.757602 11.2944 0.753852 13.1844 0.750102 14.8569C0.746352 16.5556 0.840102 18.3144 1.9576 19.5294C3.2026 20.8756 5.20885 20.9994 7.0051 20.9994C7.02385 20.9994 7.03885 20.9994 7.0576 20.9994L17.8389 20.9844C18.7801 20.9844 19.9539 20.9806 20.9364 20.4556C22.0726 19.8444 22.8751 18.5731 23.1376 16.9569C23.2951 15.9669 23.2539 14.9581 23.2126 13.9869ZM22.3951 16.8406C22.1701 18.2206 21.5101 19.2969 20.5801 19.7956C19.7626 20.2344 18.7389 20.2344 17.8351 20.2344L7.0576 20.2494C7.03885 20.2494 7.0201 20.2494 7.00135 20.2494C5.2951 20.2494 3.55135 20.1444 2.5126 19.0194C1.5751 18.0031 1.5001 16.4694 1.50385 14.8569C1.5076 13.1806 1.51135 11.4481 2.1751 9.91811C2.7676 8.55311 4.0726 7.31561 5.2276 6.22436L5.60635 5.86436C6.20635 5.29061 6.8701 4.70561 7.6201 4.33811C8.5951 3.86186 9.70135 3.74936 10.8301 3.74936C11.3439 3.74936 11.8614 3.77186 12.3714 3.79436C12.6714 3.80936 12.9714 3.82061 13.2676 3.83186L13.5264 3.83936C14.2351 3.85811 14.9064 3.87311 15.5326 4.09811C15.5364 4.09811 15.5364 4.09811 15.5401 4.10186C16.1701 4.33061 16.7139 4.76186 17.2651 5.22311C18.3976 6.17186 19.4926 7.18436 20.5276 8.23811C21.2364 8.95811 21.9489 9.74186 22.2376 10.6981C22.4176 11.2981 22.4251 11.9394 22.4289 12.6181L22.4326 12.9781C22.4364 13.3269 22.4514 13.6719 22.4664 14.0206C22.5039 14.9956 22.5414 15.9219 22.3951 16.8406Z" stroke="#F94754"/>
<path d="M4.95098 9.0177C4.96973 9.0252 6.78473 9.5877 7.20473 10.8852C6.53723 11.0615 6.10973 11.204 6.04223 11.2302C5.84723 11.2977 5.74223 11.5115 5.80973 11.7065C5.87723 11.9015 6.09098 12.0065 6.28598 11.939C6.35348 11.9127 13.2835 9.55395 17.6672 12.134C17.7272 12.1677 17.791 12.1865 17.8585 12.1865C17.986 12.1865 18.1135 12.119 18.181 12.0027C18.286 11.8227 18.226 11.594 18.0497 11.489C17.6785 11.2715 17.2922 11.0877 16.8947 10.9302C17.2885 9.59895 19.1597 9.0252 19.1785 9.02145C19.3772 8.96145 19.4897 8.7552 19.4297 8.55645C19.3697 8.3577 19.1597 8.2452 18.9647 8.3052C18.8672 8.3352 16.7185 8.99145 16.1897 10.6827C13.2685 9.7827 9.95723 10.2515 7.93223 10.7127C7.42223 8.99895 5.26223 8.3352 5.16473 8.3052C4.96598 8.2452 4.75973 8.3577 4.69973 8.55645C4.63973 8.7477 4.75223 8.9577 4.95098 9.0177Z" stroke="#F94754"/>
<path d="M20.0513 12.9079C19.1326 13.9166 18.3976 13.9391 18.3638 13.9391L6.28505 14.0029C4.93505 13.8829 4.1813 13.0279 4.1663 13.0091C4.03505 12.8516 3.7988 12.8329 3.63755 12.9641C3.48005 13.0991 3.45755 13.3354 3.59255 13.4929C3.63005 13.5379 4.5413 14.6029 6.25505 14.7529L18.36 14.6891C18.4763 14.6929 19.4588 14.6741 20.61 13.4141C20.7488 13.2604 20.7376 13.0241 20.5876 12.8854C20.4263 12.7429 20.1901 12.7541 20.0513 12.9079Z" stroke="#F94754"/>
</svg>
