<svg width="22" height="22" viewBox="0 0 22 22" fill="none" xmlns="http://www.w3.org/2000/svg">
<path fill-rule="evenodd" clip-rule="evenodd" d="M12.574 1.23646C13.1692 0.990108 14.0545 0.647319 14.9339 0.993343C15.0551 1.04104 15.1752 1.09086 15.2942 1.14278C16.1598 1.52039 16.5432 2.38814 16.7899 2.98298C16.834 3.08933 16.8743 3.18927 16.9128 3.28474C16.9988 3.49824 17.0758 3.68948 17.1666 3.8798C17.2933 4.14538 17.4132 4.33225 17.5401 4.45912C17.6669 4.586 17.8538 4.7059 18.1194 4.83257C18.3098 4.92335 18.5009 5.00037 18.7145 5.08641C18.8099 5.12484 18.91 5.16515 19.0163 5.20922C19.6111 5.45591 20.479 5.83932 20.8566 6.70486C20.9086 6.82404 20.9585 6.94435 21.0063 7.06574C21.3523 7.94516 21.0095 8.8304 20.7632 9.4256C20.7191 9.53201 20.6769 9.63118 20.6366 9.7259C20.5464 9.93768 20.4655 10.1276 20.395 10.3264C20.2967 10.6039 20.2493 10.8208 20.2493 11.0003C20.2493 11.1798 20.2967 11.3967 20.395 11.6742C20.4655 11.873 20.5462 12.0626 20.6364 12.2744C20.6767 12.3691 20.7191 12.4686 20.7632 12.575C21.0095 13.1702 21.3523 14.0555 21.0063 14.9349C20.9587 15.0559 20.9089 15.1759 20.857 15.2948C20.4794 16.1605 19.6114 16.5439 19.0165 16.7906C18.9103 16.8347 18.8104 16.8749 18.7151 16.9133C18.5015 16.9993 18.3099 17.0765 18.1195 17.1673C17.8538 17.294 17.6669 17.4139 17.5401 17.5408C17.4132 17.6677 17.2933 17.8546 17.1666 18.1202C17.0758 18.3105 16.9988 18.5017 16.9129 18.7152C16.8744 18.8107 16.834 18.9109 16.7899 19.0172C16.5432 19.6122 16.1598 20.4802 15.2941 20.8579C15.1752 20.9098 15.0551 20.9596 14.9339 21.0073C14.0545 21.3533 13.1692 21.0105 12.574 20.7642C12.4676 20.7201 12.3683 20.6778 12.2736 20.6375C12.0618 20.5473 11.872 20.4665 11.6732 20.396C11.3958 20.2977 11.1788 20.2503 10.9993 20.2503C10.8199 20.2503 10.6029 20.2977 10.3254 20.396C10.1267 20.4664 9.93722 20.5471 9.72554 20.6373C9.63071 20.6777 9.53119 20.7201 9.42464 20.7642C8.82943 21.0105 7.94419 21.3533 7.06478 21.0073C6.94358 20.9596 6.82346 20.9098 6.70447 20.8579C5.83884 20.4802 5.45541 19.6123 5.20871 19.0174C5.16461 18.911 5.12435 18.8111 5.08589 18.7156C4.99985 18.502 4.92283 18.3108 4.83204 18.1204C4.70537 17.8548 4.58546 17.6679 4.45858 17.541C4.3317 17.4142 4.14481 17.2943 3.87919 17.1676C3.68887 17.0768 3.49774 16.9998 3.28423 16.9138C3.18891 16.8754 3.0884 16.8349 2.98224 16.7909C2.38732 16.5442 1.51941 16.1608 1.14177 15.2951C1.08987 15.1762 1.04005 15.0561 0.992367 14.9349C0.646342 14.0555 0.989131 13.1702 1.23548 12.575C1.27956 12.4685 1.32182 12.3693 1.36219 12.2745C1.45238 12.0627 1.53317 11.873 1.60361 11.6742C1.70193 11.3967 1.74933 11.1798 1.74933 11.0003C1.74933 10.8208 1.70193 10.6039 1.60361 10.3264C1.53317 10.1276 1.45243 9.93803 1.36225 9.72626C1.32186 9.63143 1.27958 9.53215 1.23548 9.4256C0.989132 8.83039 0.646344 7.94515 0.992369 7.06573C1.04009 6.94445 1.08995 6.82424 1.14191 6.70516C1.51956 5.83958 2.38742 5.45616 2.98232 5.20946C3.08864 5.16537 3.18857 5.12512 3.28403 5.08666C3.49759 5.00063 3.68887 4.92358 3.87922 4.8328C4.14483 4.70612 4.33171 4.58622 4.45859 4.45934C4.58546 4.33247 4.70537 4.14559 4.83204 3.87999C4.92283 3.68964 4.99984 3.49847 5.08587 3.28493C5.12433 3.18945 5.16461 3.08946 5.20872 2.98311C5.45542 2.38823 5.83886 1.52039 6.70445 1.14277C6.82344 1.09086 6.94355 1.04104 7.06475 0.993351C7.94416 0.647325 8.8294 0.990112 9.42461 1.23646C9.53116 1.28056 9.63044 1.32284 9.72528 1.36323C9.93704 1.45341 10.1266 1.53415 10.3254 1.60459C10.6029 1.70291 10.8198 1.75031 10.9993 1.75031C11.1788 1.75031 11.3958 1.70291 11.6732 1.60459C11.872 1.53415 12.0616 1.45341 12.2734 1.36323C12.3682 1.32284 12.4675 1.28055 12.574 1.23646ZM8.23818 9.35808C8.5473 9.66719 9.04847 9.66719 9.35759 9.35808C9.6667 9.04896 9.6667 8.54779 9.35759 8.23867C9.04847 7.92956 8.5473 7.92956 8.23818 8.23867C7.92907 8.54779 7.92907 9.04896 8.23818 9.35808ZM12.6412 13.761C12.9503 14.0701 13.4515 14.0701 13.7606 13.761C14.0697 13.4519 14.0697 12.9507 13.7606 12.6416C13.4515 12.3325 12.9503 12.3325 12.6412 12.6416C12.332 12.9507 12.332 13.4519 12.6412 13.761ZM13.7685 8.23056C14.0614 8.52346 14.0614 8.99833 13.7685 9.29122L9.2909 13.7688C8.99801 14.0617 8.52313 14.0617 8.23024 13.7688C7.93735 13.4759 7.93735 13.0011 8.23024 12.7082L12.7079 8.23056C13.0007 7.93767 13.4756 7.93767 13.7685 8.23056Z" fill="#F94754"/>
</svg>
