<svg width="18" height="21" viewBox="0 0 18 21" fill="none" xmlns="http://www.w3.org/2000/svg">
<path d="M16.5 5H1.5C0.671573 5 0 5.67157 0 6.5V8.5C0 9.32843 0.671573 10 1.5 10H4.5H13.5H16.5C17.3284 10 18 9.32843 18 8.5V6.5C18 5.67157 17.3284 5 16.5 5Z" fill="#F94754"/>
<path d="M9 3.5C9 2.11929 10.1193 1 11.5 1H12C13.1046 1 14 1.89543 14 3V3C14 4.10457 13.1046 5 12 5H9V3.5Z" stroke="#F94754" stroke-width="1.5"/>
<path d="M9 3.5C9 2.11929 7.88071 1 6.5 1H6C4.89543 1 4 1.89543 4 3V3C4 4.10457 4.89543 5 6 5H9V3.5Z" stroke="#F94754" stroke-width="1.5"/>
<path fill-rule="evenodd" clip-rule="evenodd" d="M1 11.5V17C1 19.2091 2.79086 21 5 21H8.2L8.2 11.5H1ZM9.7 11.5L9.7 21H13C15.2091 21 17 19.2091 17 17V11.5H9.7Z" fill="#F94754"/>
</svg>
