<svg width="24" height="24" viewBox="0 0 24 24" fill="none" xmlns="http://www.w3.org/2000/svg">
<rect width="24" height="24" fill="url(#mr_Rm)"/>
<path d="M7.95483 13.7077V11.0231C7.95483 10.2615 7.53893 9.9 6.84054 9.9C6.25986 9.9 5.75765 10.2385 5.53793 10.5769C5.39668 10.1538 5.04356 9.9 4.48642 9.9C3.90573 9.9 3.40352 10.2538 3.24658 10.4769V9.99231H2.25V13.7077H3.24658V11.2077C3.39567 11 3.68602 10.7692 4.03129 10.7692C4.43934 10.7692 4.59628 11.0154 4.59628 11.3615V13.7077H5.6007V11.2C5.74195 11 6.03229 10.7692 6.38541 10.7692C6.79346 10.7692 6.9504 11.0154 6.9504 11.3615V13.7077H7.95483ZM10.6935 13.8C9.44577 13.8 8.69245 12.9077 8.69245 11.8462C8.69245 10.7923 9.44577 9.9 10.6935 9.9C11.949 9.9 12.7023 10.7923 12.7023 11.8462C12.7023 12.9077 11.949 13.8 10.6935 13.8ZM10.6935 12.9308C11.3134 12.9308 11.6665 12.4308 11.6665 11.8462C11.6665 11.2692 11.3134 10.7692 10.6935 10.7692C10.0735 10.7692 9.72827 11.2692 9.72827 11.8462C9.72827 12.4308 10.0735 12.9308 10.6935 12.9308ZM16.9947 13.7077V11.0846C16.9947 10.3615 16.5945 9.9 15.7627 9.9C15.1428 9.9 14.6798 10.1923 14.4365 10.4769V9.99231H13.4399V13.7077H14.4365V11.2077C14.6013 10.9846 14.9073 10.7692 15.2997 10.7692C15.7234 10.7692 15.9981 10.9462 15.9981 11.4615V13.7077H16.9947ZM19.7411 13.8C18.4935 13.8 17.7401 12.9077 17.7401 11.8462C17.7401 10.7923 18.4935 9.9 19.7411 9.9C20.9967 9.9 21.75 10.7923 21.75 11.8462C21.75 12.9077 20.9967 13.8 19.7411 13.8ZM19.7411 12.9308C20.3611 12.9308 20.7142 12.4308 20.7142 11.8462C20.7142 11.2692 20.3611 10.7692 19.7411 10.7692C19.1212 10.7692 18.776 11.2692 18.776 11.8462C18.776 12.4308 19.1212 12.9308 19.7411 12.9308Z" fill="white"/>
<defs>
<linearGradient id="mr_Rm" x1="12" y1="0" x2="12" y2="24" gradientUnits="userSpaceOnUse">
<stop stop-color="#373B45"/>
<stop offset="1" stop-color="#181A1D"/>
</linearGradient>
</defs>
</svg>
