<svg width="48" height="48" viewBox="0 0 48 48" fill="none" xmlns="http://www.w3.org/2000/svg">
<rect x="0.5" y="0.5" width="47" height="47" rx="15.5" fill="white"/>
<rect x="0.5" y="0.5" width="47" height="47" rx="15.5" stroke="#FF8158"/>
<path d="M27.2343 18.5393L24.2028 17.0595C24.1524 17.0321 24.0765 17.0059 24.0005 17.0059C23.9245 17.0059 23.8742 17.0332 23.7982 17.0595L20.7666 18.5393L24.0005 20.1274L27.2343 18.5393Z" fill="#FF8158"/>
<path d="M20.211 23.7853C20.211 23.9735 20.3117 24.1616 20.4893 24.2425L23.5209 25.7224V21.0138L20.2109 19.4268L20.211 23.7853Z" fill="#FF8158"/>
<path d="M27.7895 23.7853V19.4268L24.4795 21.0411V25.7497L27.5111 24.2699C27.6887 24.1627 27.7895 24.0007 27.7895 23.7853Z" fill="#FF8158"/>
<path d="M32.6901 20.4502V21.661C34.1052 22.3063 34.9381 23.0599 34.9381 23.7861C34.9381 25.5077 30.441 27.391 23.9989 27.391C17.5569 27.391 13.0353 25.4802 13.0353 23.7861C13.0353 23.0599 13.8692 22.2789 15.309 21.661V20.4502C13.1626 21.311 12 22.4682 12 23.786C12 25.454 13.7941 26.6921 16.3708 27.4719V34.3055C16.3708 35.2472 17.0783 36.0008 17.9369 36.0008H30.0631C30.9217 36.0008 31.6292 35.2472 31.6292 34.3055V27.4719C34.1813 26.6647 36 25.4266 36 23.786C36 22.468 34.8375 21.3109 32.6901 20.4502ZM26.0467 34.1188C26.0467 34.3342 25.87 34.5224 25.6677 34.5224H22.6609C22.4586 34.5224 22.282 34.3342 22.282 34.1188V33.177C22.282 32.9616 22.4586 32.7735 22.6609 32.7735H25.6667C25.869 32.7735 26.0456 32.9616 26.0456 33.177L26.0467 34.1188ZM30.139 31.32H17.8607V27.8757C19.7554 28.3067 21.9028 28.5211 24.0244 28.5211C26.1214 28.5211 28.2688 28.3056 30.1635 27.8757V31.32H30.139Z" fill="#FF8158"/>
<path d="M17.8612 15.2562H30.1396V25.5876C30.7208 25.453 31.2004 25.2912 31.6553 25.1304V13.6953C31.6553 12.7536 30.9478 12 30.0892 12H17.9372C17.053 12 16.3711 12.7536 16.3711 13.6953V25.1578C16.8004 25.3197 17.281 25.4542 17.8612 25.615V15.2562ZM21.8027 13.2382H26.1735C26.3758 13.2382 26.5525 13.4264 26.5525 13.6418C26.5525 13.8573 26.3758 14.0454 26.1735 14.0454H21.8027C21.6004 14.0454 21.4238 13.8573 21.4238 13.6418C21.4238 13.4264 21.6004 13.2382 21.8027 13.2382Z" fill="#FF8158"/>
</svg>
