<svg width="48" height="48" viewBox="0 0 48 48" fill="none" xmlns="http://www.w3.org/2000/svg">
<path fill-rule="evenodd" clip-rule="evenodd" d="M2.5 14C2.5 7.64873 7.64873 2.5 14 2.5H34C40.3513 2.5 45.5 7.64873 45.5 14V34C45.5 40.3513 40.3513 45.5 34 45.5H14C7.64873 45.5 2.5 40.3513 2.5 34V14ZM17.9393 24.0607L21.9393 28.0607C22.5251 28.6464 23.4749 28.6464 24.0607 28.0607L32.0607 20.0607C32.6464 19.4749 32.6464 18.5251 32.0607 17.9393C31.4749 17.3536 30.5251 17.3536 29.9393 17.9393L23 24.8787L20.0607 21.9393C19.4749 21.3536 18.5251 21.3536 17.9393 21.9393C17.3536 22.5251 17.3536 23.4749 17.9393 24.0607Z" fill="white"/>
</svg>
