<svg width="107" height="40" viewBox="0 0 107 40" fill="none" xmlns="http://www.w3.org/2000/svg">
<path d="M1 27.2112H16.625V24.0759H4.625V15.6733H13.875V12.538H4.625V4.38614H16V1.25083H1V27.2112ZM38.625 27.7129C37.25 27.7129 36 27.462 35 26.835C34 26.2079 33.125 25.33 32.625 24.2013C32 23.0726 31.75 21.9439 31.75 20.5644V7.64687C31.75 6.64356 31.375 5.76568 30.625 5.13861C30 4.51155 29.125 4.13531 28.125 4.13531C27.125 4.13531 26.375 4.51155 25.625 5.13861C25 5.76568 24.625 6.64356 24.625 7.64687V27.2112H21.125V8.14851C21.125 6.76898 21.375 5.64026 22 4.51155C22.625 3.38284 23.375 2.63036 24.5 2.0033C25.625 1.37624 26.875 1 28.25 1C29.625 1 30.875 1.37624 31.875 2.0033C32.875 2.63036 33.75 3.50825 34.375 4.51155C35 5.64026 35.25 6.76898 35.25 8.14851V20.9406C35.25 21.9439 35.625 22.8218 36.25 23.4488C36.875 24.0759 37.75 24.4521 38.625 24.4521C39.5 24.4521 40.375 24.0759 41 23.4488C41.625 22.8218 42 21.9439 42 20.9406V1.50165H45.5V20.5644C45.5 21.9439 45.25 23.0726 44.625 24.2013C44 25.33 43.25 26.0825 42.25 26.835C41.25 27.3366 40 27.7129 38.625 27.7129ZM51.625 1.50165V32.7294C51.625 33.8581 51.375 34.6106 50.875 35.1122C50.375 35.6139 49.75 35.8647 49 35.8647C48.5 35.8647 48.125 35.7393 47.625 35.4884V38.8746C48.125 39 48.625 39 49.25 39C51 39 52.5 38.3729 53.5 37.2442C54.625 36.1155 55.125 34.4852 55.125 32.4785V1.50165H51.625ZM59.75 14.4191C59.75 21.8185 65.75 27.8383 73.125 27.8383C80.5 27.8383 86.5 21.8185 86.5 14.4191H83.125C83.125 19.9373 78.625 24.5776 73 24.5776C67.5 24.5776 62.875 20.0627 62.875 14.4191H59.75ZM93.75 27.2112H97.375V16.1749L106 1.25083H101.875L97.125 9.77888C96.375 11.2838 95.5 13.0396 95.5 13.0396H95.375C95.375 13.0396 94.625 11.1584 93.75 9.77888L89 1.25083H84.875L93.625 16.1749L93.75 27.2112Z" fill="#054F78"/>
</svg>
