<svg width="781" height="64" viewBox="0 0 781 64" fill="none" xmlns="http://www.w3.org/2000/svg">
<g clip-path="url(#clip0_2005_106)">
<path d="M204 62.9433V2H232.811L255.437 37.4084C257.498 40.6428 262.402 39.1674 262.402 35.3088V2H276V62.8865H271.82L246.241 63L224.563 28.7265C222.502 25.4921 217.598 26.9674 217.598 30.826V62.8865H204V62.9433Z" fill="white"/>
<path d="M427.337 2H441L414.798 63H388.652L362 2H387.359L403.833 42.1181C405.127 45.2958 409.569 45.2958 410.918 42.1181L427.393 2H427.337Z" fill="white"/>
<path d="M528.223 62V12.3911H501V2H578V12.3911H550.44V62H528.279H528.223Z" fill="white"/>
<path d="M620.601 0.0562885C633.457 0.0562885 649.303 2.25154 658.551 11.0888L651.051 17.5057C644.341 13.5655 634.303 10.4134 624.435 10.4134C614.567 10.4134 605.093 10.3571 605.093 15.8734C605.093 21.3896 613.157 20.9956 626.747 22.2902C638.927 23.416 649.923 24.4855 656.859 30.1143C663.964 35.8558 664.641 43.7924 660.243 50.4345C652.686 61.861 635.206 64 621.503 64C607.8 64 592.406 61.073 580 50.4345L589.361 43.9613C597.706 51.3914 610.676 53.6429 621.898 53.6429C633.119 53.6429 640.224 53.08 640.224 47.0572C640.224 41.0343 631.935 41.1469 617.104 39.8522C606.108 38.8953 595.507 37.7133 588.177 31.6904C579.436 24.4855 580.789 13.4529 589.925 6.97977C598.101 1.23835 610.62 0 620.544 0L620.601 0.0562885Z" fill="white"/>
<path d="M669 63V2H691V63H669Z" fill="white"/>
<path d="M711.619 63H698L724.116 2H754.548L781 63H755.725L750.288 49.5516H717.111L711.675 63H711.619ZM722.547 36.3302H744.796L737.174 17.6614C735.885 14.4837 731.402 14.4837 730.113 17.6614L722.547 36.3302Z" fill="white"/>
<path d="M442.609 63H429L455.155 2H485.565L512 63H486.742L481.309 49.5516H448.154L442.721 63H442.609ZM453.53 36.387H475.765L468.148 17.7181C466.86 14.5405 462.379 14.5405 461.091 17.7181L453.53 36.387Z" fill="white"/>
<path d="M323.423 0C301.29 0 285.465 15.0688 285.014 31.0406C284.507 49.2698 297.742 64 323.423 64C349.103 64 362 50.7372 362 32.1129C362 13.4885 345.274 0 323.423 0ZM323.535 51.866C312.215 51.866 307.372 43.4004 307.372 32.0564C307.372 20.7125 312.215 12.2469 323.535 12.2469C334.855 12.2469 339.698 20.7125 339.698 32.0564C339.698 43.4004 334.855 51.866 323.535 51.866Z" fill="white"/>
<path d="M150 5.87278V58.1272C150 60.2601 148.26 62 146.128 62H71.3805C69.248 62 67.5084 60.2601 67.5084 58.1272V26.8644C67.5084 21.5323 61.055 18.8382 57.2952 22.5987L20.4826 59.362C18.7991 61.0458 16.5544 61.9439 14.1975 61.9439H3.87205C1.73962 62 0 60.2601 0 58.1272V5.87278C0 3.68382 1.73962 2 3.87205 2H78.6195C80.752 2 82.4916 3.73994 82.4916 5.87278V37.1356C82.4916 42.4677 88.945 45.1618 92.7048 41.4013L129.517 4.58185C131.201 2.89804 133.446 2 135.802 2H146.128C148.26 2 150 3.73994 150 5.87278Z" fill="white"/>
</g>
<defs>
<clipPath id="clip0_2005_106">
<rect width="781" height="64" fill="white"/>
</clipPath>
</defs>
</svg>
