<svg width="150" height="60" viewBox="0 0 150 60" fill="none" xmlns="http://www.w3.org/2000/svg">
<path d="M150 3.87278V56.1272C150 58.2601 148.26 60 146.128 60H71.3805C69.248 60 67.5084 58.2601 67.5084 56.1272V24.8644C67.5084 19.5323 61.055 16.8382 57.2952 20.5987L20.4826 57.362C18.7991 59.0458 16.5544 59.9439 14.1975 59.9439H3.87205C1.73962 60 0 58.2601 0 56.1272V3.87278C0 1.68382 1.73962 0 3.87205 0H78.6195C80.752 0 82.4916 1.73994 82.4916 3.87278V35.1356C82.4916 40.4677 88.945 43.1618 92.7048 39.4013L129.517 2.58185C131.201 0.898036 133.446 0 135.802 0H146.128C148.26 0 150 1.73994 150 3.87278Z" fill="white"/>
</svg>
