<svg width="24" height="24" viewBox="0 0 24 24" fill="none" xmlns="http://www.w3.org/2000/svg">
<path d="M11.175 11.1759H7.32503C7.21571 11.1743 7.10717 11.1945 7.00572 11.2353C6.90427 11.276 6.81194 11.3366 6.73408 11.4133C6.65623 11.4901 6.5944 11.5816 6.55221 11.6824C6.51001 11.7833 6.48828 11.8915 6.48828 12.0009C6.48828 12.1102 6.51001 12.2184 6.55221 12.3193C6.5944 12.4202 6.65623 12.5116 6.73408 12.5884C6.81194 12.6652 6.90427 12.7257 7.00572 12.7664C7.10717 12.8072 7.21571 12.8274 7.32503 12.8259H11.175H12.825H16.675C16.7844 12.8274 16.8929 12.8072 16.9943 12.7664C17.0958 12.7257 17.1881 12.6652 17.266 12.5884C17.3438 12.5116 17.4057 12.4202 17.4479 12.3193C17.4901 12.2184 17.5118 12.1102 17.5118 12.0009C17.5118 11.8915 17.4901 11.7833 17.4479 11.6824C17.4057 11.5816 17.3438 11.4901 17.266 11.4133C17.1881 11.3366 17.0958 11.276 16.9943 11.2353C16.8929 11.1945 16.7844 11.1743 16.675 11.1759H12.825H11.175Z" fill="#4C5C66"/>
</svg>
