<svg width="32" height="32" viewBox="0 0 32 32" fill="none" xmlns="http://www.w3.org/2000/svg">
<path d="M21.7556 16.9559L13.443 21.7551C12.6774 22.1974 12.0542 21.838 12.0502 20.9551L12.0073 11.2579C12.003 10.3749 12.6187 10.0186 13.382 10.4643L21.7587 15.3498C22.522 15.7956 22.5204 16.5145 21.7556 16.9559ZM23.9979 29.8539C16.3472 34.2719 6.56315 31.6498 2.14635 23.9984C-2.27189 16.3473 0.349868 6.56332 8.00123 2.14648C15.652 -2.27196 25.4361 0.349823 29.8536 8.00125C34.2723 15.6522 31.6496 25.4357 23.9979 29.8539ZM27.0828 9.60111C23.5488 3.47993 15.7214 1.38263 9.60091 4.91707C3.48059 8.45022 1.38235 16.2778 4.91691 22.398C8.45067 28.5195 16.2785 30.617 22.3985 27.0821C28.5192 23.5484 30.6168 15.7223 27.0828 9.60111Z" fill="white"/>
</svg>
