<svg width="24" height="24" viewBox="0 0 24 24" fill="none" xmlns="http://www.w3.org/2000/svg">
<path d="M11.9871 6.48838C11.7685 6.4918 11.5602 6.58185 11.4079 6.73875C11.2557 6.89565 11.1719 7.10658 11.175 7.3252V11.1752H7.32503C7.21571 11.1737 7.10717 11.1939 7.00572 11.2346C6.90427 11.2754 6.81194 11.3359 6.73408 11.4127C6.65623 11.4894 6.5944 11.5809 6.55221 11.6818C6.51001 11.7826 6.48828 11.8909 6.48828 12.0002C6.48828 12.1095 6.51001 12.2178 6.55221 12.3186C6.5944 12.4195 6.65623 12.511 6.73408 12.5877C6.81194 12.6645 6.90427 12.725 7.00572 12.7658C7.10717 12.8065 7.21571 12.8267 7.32503 12.8252H11.175V16.6752C11.1735 16.7845 11.1937 16.8931 11.2344 16.9945C11.2752 17.096 11.3357 17.1883 11.4125 17.2661C11.4893 17.344 11.5807 17.4058 11.6816 17.448C11.7825 17.4902 11.8907 17.5119 12 17.5119C12.1094 17.5119 12.2176 17.4902 12.3185 17.448C12.4193 17.4058 12.5108 17.344 12.5876 17.2661C12.6643 17.1883 12.7248 17.096 12.7656 16.9945C12.8064 16.8931 12.8266 16.7845 12.825 16.6752V12.8252H16.675C16.7844 12.8267 16.8929 12.8065 16.9943 12.7658C17.0958 12.725 17.1881 12.6645 17.266 12.5877C17.3438 12.511 17.4057 12.4195 17.4479 12.3186C17.4901 12.2178 17.5118 12.1095 17.5118 12.0002C17.5118 11.8909 17.4901 11.7826 17.4479 11.6818C17.4057 11.5809 17.3438 11.4894 17.266 11.4127C17.1881 11.3359 17.0958 11.2754 16.9943 11.2346C16.8929 11.1939 16.7844 11.1737 16.675 11.1752H12.825V7.3252C12.8266 7.21478 12.806 7.10516 12.7645 7.00285C12.7229 6.90054 12.6612 6.80761 12.5831 6.72957C12.5049 6.65153 12.4119 6.58997 12.3096 6.54854C12.2072 6.50711 12.0976 6.48666 11.9871 6.48838Z" fill="#4C5C66"/>
</svg>
