<svg width="270" height="270" viewBox="0 0 270 270" fill="none" xmlns="http://www.w3.org/2000/svg">
<path fill-rule="evenodd" clip-rule="evenodd" d="M1.48438 67.6373C1.48438 65.3566 3.33321 63.5078 5.61385 63.5078C13.4745 63.5078 19.7406 63.9458 25.6208 65.751C31.5686 67.577 36.8217 70.7052 42.8721 75.6212C46.6938 78.7263 50.3594 82.15 53.8826 85.4408L54.1377 85.679C57.7808 89.0814 61.2728 92.3307 64.8369 95.1819C72.7857 101.541 79.9982 108.133 85.9729 117.095C87.2379 118.993 86.7252 121.556 84.8275 122.821C82.9299 124.087 80.3661 123.574 79.101 121.676C73.816 113.749 67.3629 107.779 59.6775 101.631C55.826 98.5499 52.1066 95.0828 48.5005 91.7149L48.3372 91.5624C44.7471 88.2094 41.2617 84.9541 37.6641 82.031C32.1189 77.5256 27.7999 75.0594 23.197 73.6463C18.5265 72.2125 13.2633 71.7668 5.61385 71.7668C3.33321 71.7668 1.48438 69.9179 1.48438 67.6373Z" fill="#4763F9"/>
<path fill-rule="evenodd" clip-rule="evenodd" d="M50.4375 42.4615C50.4375 40.1809 52.2863 38.332 54.567 38.332C66.2804 38.332 77.8037 42.7681 87.9825 49.0664C98.1866 55.3805 107.302 63.7253 114.282 71.9589C114.661 72.4056 115.462 73.4031 116.471 74.6591C116.81 75.0812 117.172 75.5324 117.55 76.0017C119.091 77.9166 120.967 80.234 122.802 82.4322C124.653 84.6488 126.402 86.6719 127.704 88.0309C128.053 88.3946 128.333 88.6724 128.548 88.876C128.749 88.9402 128.947 89.0206 129.141 89.1176C131.181 90.1376 132.008 92.618 130.988 94.6579C130.412 95.8089 129.333 96.6746 128.001 96.9417C126.922 97.1581 126.048 96.9064 125.654 96.7693C124.856 96.4911 124.237 96.0299 123.946 95.8058C123.242 95.2631 122.467 94.5024 121.74 93.7443C120.232 92.1695 118.331 89.9639 116.462 87.7252C114.578 85.4682 112.664 83.104 111.116 81.1796C110.684 80.6428 110.286 80.1471 109.927 79.7001C108.966 78.504 108.285 77.656 107.983 77.2998C101.472 69.6203 92.9965 61.8812 83.6367 56.0896C74.2516 50.2823 64.2377 46.591 54.567 46.591C52.2863 46.591 50.4375 44.7422 50.4375 42.4615Z" fill="#4763F9"/>
<path fill-rule="evenodd" clip-rule="evenodd" d="M80.0012 247.863C77.7205 247.863 75.8717 246.014 75.8717 243.734C75.8717 232.884 77.9965 221.478 79.937 211.061C80.2707 209.27 80.599 207.508 80.91 205.783C82.8516 195.016 85.228 182.692 89.1606 170.949C93.0897 159.217 98.6621 147.78 107.172 138.929C120.734 124.825 138.302 119.268 155.275 113.899C156.394 113.545 157.51 113.192 158.622 112.838C175.678 107.4 193.829 105.913 211.804 105.749C220.8 105.667 229.813 105.917 238.65 106.184C239.325 106.204 239.999 106.225 240.672 106.245C248.833 106.494 256.825 106.737 264.617 106.737C266.897 106.737 268.746 108.586 268.746 110.867C268.746 113.147 266.897 114.996 264.617 114.996C256.693 114.996 248.578 114.749 240.445 114.501C239.763 114.48 239.082 114.46 238.4 114.439C229.557 114.172 220.693 113.927 211.88 114.008C194.236 114.169 177.037 115.635 161.131 120.706C160.165 121.014 159.205 121.319 158.249 121.622C140.829 127.151 125.18 132.117 113.126 144.653C105.794 152.278 100.72 162.441 96.992 173.572C93.2677 184.693 90.9774 196.493 89.0379 207.248C88.71 209.067 88.3711 210.891 88.0318 212.717C86.0889 223.175 84.1307 233.716 84.1307 243.734C84.1307 246.014 82.2818 247.863 80.0012 247.863Z" fill="#4763F9"/>
</svg>
