<svg width="24" height="24" viewBox="0 0 24 24" fill="none" xmlns="http://www.w3.org/2000/svg">
<path fill-rule="evenodd" clip-rule="evenodd" d="M13.5745 2.23548C14.1697 1.98913 15.055 1.64634 15.9344 1.99237C16.0556 2.04006 16.1757 2.08989 16.2947 2.1418C17.1603 2.51941 17.5437 3.38717 17.7904 3.98201C17.8345 4.08835 17.8748 4.18829 17.9132 4.28376C17.9993 4.49727 18.0763 4.6885 18.1671 4.87882C18.2938 5.1444 18.4137 5.33127 18.5405 5.45815C18.6674 5.58502 18.8543 5.70492 19.1199 5.83159C19.3102 5.92238 19.5014 5.99939 19.715 6.08543C19.8104 6.12386 19.9105 6.16417 20.0167 6.20824C20.6116 6.45493 21.4794 6.83834 21.8571 7.70388C21.9091 7.82307 21.959 7.94338 22.0068 8.06477C22.3528 8.94418 22.01 9.82942 21.7637 10.4246C21.7196 10.531 21.6774 10.6302 21.637 10.7249C21.5469 10.9367 21.466 11.1266 21.3955 11.3254C21.2972 11.6029 21.2498 11.8199 21.2498 11.9993C21.2498 12.1788 21.2972 12.3958 21.3955 12.6732C21.466 12.872 21.5467 13.0616 21.6369 13.2734C21.6772 13.3681 21.7196 13.4677 21.7637 13.574C22.01 14.1692 22.3528 15.0545 22.0068 15.9339C21.9591 16.055 21.9094 16.1749 21.8575 16.2938C21.4799 17.1595 20.6119 17.543 20.017 17.7896C19.9108 17.8337 19.8109 17.8739 19.7156 17.9123C19.502 17.9983 19.3103 18.0755 19.12 18.1663C18.8543 18.293 18.6674 18.4129 18.5405 18.5398C18.4137 18.6667 18.2938 18.8536 18.1671 19.1192C18.0763 19.3095 17.9993 19.5007 17.9133 19.7142C17.8749 19.8097 17.8345 19.9099 17.7904 20.0163C17.5437 20.6112 17.1603 21.4792 16.2946 21.8569C16.1757 21.9088 16.0556 21.9586 15.9344 22.0063C15.055 22.3523 14.1697 22.0095 13.5745 21.7632C13.4681 21.7191 13.3688 21.6769 13.2741 21.6365C13.0623 21.5463 12.8725 21.4655 12.6737 21.395C12.3963 21.2967 12.1793 21.2493 11.9998 21.2493C11.8204 21.2493 11.6034 21.2967 11.3259 21.395C11.1272 21.4655 10.9377 21.5462 10.726 21.6363C10.6312 21.6767 10.5317 21.7191 10.4251 21.7632C9.82992 22.0095 8.94468 22.3523 8.06527 22.0063C7.94407 21.9586 7.82395 21.9088 7.70496 21.8569C6.83932 21.4792 6.45589 20.6113 6.2092 20.0164C6.1651 19.91 6.12484 19.8101 6.08637 19.7146C6.00034 19.501 5.92332 19.3098 5.83253 19.1194C5.70585 18.8538 5.58595 18.6669 5.45907 18.5401C5.33219 18.4132 5.1453 18.2933 4.87968 18.1666C4.68936 18.0758 4.49822 17.9988 4.28472 17.9128C4.1894 17.8744 4.08889 17.8339 3.98273 17.7899C3.38781 17.5432 2.5199 17.1598 2.14226 16.2942C2.09035 16.1752 2.04054 16.0551 1.99286 15.9339C1.64683 15.0545 1.98962 14.1692 2.23597 13.574C2.28005 13.4675 2.32231 13.3683 2.36268 13.2735C2.45287 13.0617 2.53366 12.872 2.6041 12.6732C2.70242 12.3958 2.74981 12.1788 2.74981 11.9993C2.74981 11.8199 2.70242 11.6029 2.6041 11.3254C2.53366 11.1266 2.45292 10.9371 2.36274 10.7253C2.32235 10.6305 2.28007 10.5312 2.23597 10.4246C1.98962 9.82941 1.64683 8.94417 1.99286 8.06476C2.04058 7.94347 2.09044 7.82327 2.1424 7.70419C2.52005 6.8386 3.38791 6.45518 3.98281 6.20849C4.08913 6.16439 4.18906 6.12414 4.28452 6.08569C4.49808 5.99966 4.68935 5.9226 4.87971 5.83182C5.14532 5.70515 5.3322 5.58525 5.45907 5.45837C5.58595 5.33149 5.70585 5.14461 5.83253 4.87901C5.92331 4.68866 6.00033 4.4975 6.08636 4.28395C6.12482 4.18847 6.1651 4.08849 6.20921 3.98213C6.45591 3.38725 6.83935 2.51942 7.70494 2.1418C7.82393 2.08988 7.94404 2.04006 8.06524 1.99237C8.94465 1.64635 9.82989 1.98914 10.4251 2.23548C10.5316 2.27958 10.6309 2.32186 10.7258 2.36225C10.9375 2.45244 11.1271 2.53317 11.3259 2.60361C11.6034 2.70193 11.8203 2.74933 11.9998 2.74933C12.1793 2.74933 12.3962 2.70193 12.6737 2.60361C12.8725 2.53317 13.0621 2.45244 13.2738 2.36225C13.3687 2.32187 13.468 2.27958 13.5745 2.23548ZM9.23867 10.3571C9.54779 10.6662 10.049 10.6662 10.3581 10.3571C10.6672 10.048 10.6672 9.54681 10.3581 9.2377C10.049 8.92858 9.54779 8.92858 9.23867 9.2377C8.92956 9.54681 8.92956 10.048 9.23867 10.3571ZM13.6416 14.76C13.9508 15.0691 14.4519 15.0691 14.7611 14.76C15.0702 14.4509 15.0702 13.9497 14.7611 13.6406C14.4519 13.3315 13.9508 13.3315 13.6416 13.6406C13.3325 13.9497 13.3325 14.4509 13.6416 14.76ZM14.769 9.22959C15.0619 9.52248 15.0619 9.99735 14.769 10.2902L10.2914 14.7679C9.99849 15.0608 9.52362 15.0608 9.23073 14.7679C8.93783 14.475 8.93783 14.0001 9.23073 13.7072L13.7083 9.22959C14.0012 8.93669 14.4761 8.93669 14.769 9.22959Z" fill="#F94754"/>
</svg>
