<svg width="210" height="210" viewBox="0 0 210 210" fill="none" xmlns="http://www.w3.org/2000/svg">
<path fill-rule="evenodd" clip-rule="evenodd" d="M1.48438 62.6373C1.48438 60.3566 3.33321 58.5078 5.61385 58.5078C13.4745 58.5078 19.7406 58.9458 25.6208 60.751C31.5686 62.577 36.8217 65.7052 42.8721 70.6212C46.6938 73.7263 50.3594 77.15 53.8826 80.4408L54.1377 80.679C57.7808 84.0814 61.2728 87.3307 64.8369 90.1819C72.7857 96.541 79.9982 103.133 85.9729 112.095C87.2379 113.993 86.7252 116.556 84.8275 117.821C82.9299 119.087 80.3661 118.574 79.101 116.676C73.816 108.749 67.3629 102.779 59.6775 96.6311C55.826 93.5499 52.1066 90.0828 48.5005 86.7149L48.3372 86.5624C44.7471 83.2094 41.2617 79.9541 37.6641 77.031C32.1189 72.5256 27.7999 70.0594 23.197 68.6463C18.5265 67.2125 13.2633 66.7668 5.61385 66.7668C3.33321 66.7668 1.48438 64.9179 1.48438 62.6373Z" fill="#4763F9"/>
<path fill-rule="evenodd" clip-rule="evenodd" d="M50.4375 37.4615C50.4375 35.1809 52.2863 33.332 54.567 33.332C66.2804 33.332 77.8037 37.7681 87.9825 44.0664C98.1866 50.3805 107.302 58.7253 114.282 66.9589C114.661 67.4056 115.462 68.4031 116.471 69.6591C116.81 70.0812 117.172 70.5324 117.55 71.0017C119.091 72.9166 120.967 75.234 122.802 77.4322C124.653 79.6488 126.402 81.6719 127.704 83.0309C128.053 83.3946 128.333 83.6724 128.548 83.876C128.749 83.9402 128.947 84.0206 129.141 84.1176C131.181 85.1376 132.008 87.618 130.988 89.6579C130.412 90.8089 129.333 91.6746 128.001 91.9417C126.922 92.1581 126.048 91.9064 125.654 91.7693C124.856 91.4911 124.237 91.0299 123.946 90.8058C123.242 90.2631 122.467 89.5024 121.74 88.7443C120.232 87.1695 118.331 84.9639 116.462 82.7252C114.578 80.4682 112.664 78.104 111.116 76.1796C110.684 75.6428 110.286 75.1471 109.927 74.7001C108.966 73.504 108.285 72.656 107.983 72.2998C101.472 64.6203 92.9965 56.8812 83.6367 51.0896C74.2516 45.2823 64.2377 41.591 54.567 41.591C52.2863 41.591 50.4375 39.7422 50.4375 37.4615Z" fill="#4763F9"/>
<path fill-rule="evenodd" clip-rule="evenodd" d="M205.616 34.7344C207.897 34.7344 209.745 36.5832 209.745 38.8639C209.745 49.7136 207.621 61.1197 205.68 71.5366C205.346 73.328 205.018 75.0901 204.707 76.815C202.766 87.5817 200.389 99.9058 196.457 111.648C192.527 123.38 186.955 134.818 178.445 143.669C164.883 157.773 147.315 163.33 130.342 168.698C129.223 169.052 128.107 169.405 126.995 169.76C109.939 175.198 91.7885 176.685 73.813 176.849C64.8172 176.931 55.8041 176.681 46.9673 176.414C46.2921 176.393 45.6181 176.373 44.9452 176.352C36.7846 176.104 28.7919 175.86 21.0006 175.86C18.7199 175.86 16.8711 174.012 16.8711 171.731C16.8711 169.45 18.7199 167.601 21.0006 167.601C28.9238 167.601 37.0393 167.849 45.1727 168.096C45.854 168.117 46.5355 168.138 47.217 168.159C56.0599 168.426 64.9239 168.671 73.7376 168.59C91.3812 168.429 108.58 166.963 124.486 161.891C125.452 161.583 126.412 161.279 127.368 160.975C144.788 155.447 160.437 150.481 172.492 137.944C179.823 130.32 184.897 120.156 188.625 109.025C192.349 97.905 194.64 86.1044 196.579 75.3493C196.907 73.531 197.246 71.7069 197.585 69.8803C199.528 59.4227 201.487 48.8821 201.487 38.8639C201.487 36.5832 203.335 34.7344 205.616 34.7344Z" fill="#4763F9"/>
</svg>
