<svg width="24" height="24" viewBox="0 0 24 24" fill="none" xmlns="http://www.w3.org/2000/svg">
<path fill-rule="evenodd" clip-rule="evenodd" d="M6.4184 5.25C4.39219 5.25 3.23559 7.56321 4.45131 9.18418C4.97019 9.87601 5.25068 10.7175 5.25068 11.5823V18C5.25068 20.6234 7.37733 22.75 10.0007 22.75H14.0007C16.624 22.75 18.7507 20.6234 18.7507 18V11.5823C18.7507 10.7175 19.0312 9.87601 19.55 9.18418C20.7658 7.56321 19.6092 5.25 17.583 5.25H6.4184ZM14.0005 10.25C14.4147 10.25 14.7505 10.5858 14.7505 11V17C14.7505 17.4142 14.4147 17.75 14.0005 17.75C13.5863 17.75 13.2505 17.4142 13.2505 17V11C13.2505 10.5858 13.5863 10.25 14.0005 10.25ZM10.7505 11C10.7505 10.5858 10.4147 10.25 10.0005 10.25C9.58627 10.25 9.25049 10.5858 9.25049 11L9.25049 17C9.25049 17.4142 9.58627 17.75 10.0005 17.75C10.4147 17.75 10.7505 17.4142 10.7505 17L10.7505 11Z" fill="#2B3F6C"/>
<path d="M16 6L15.4558 4.36754C15.1836 3.55086 14.4193 3 13.5585 3H10.4415C9.58066 3 8.81638 3.55086 8.54415 4.36754L8 6" stroke="#2B3F6C" stroke-width="1.5" stroke-linecap="round"/>
</svg>
