<?xml version="1.0" encoding="utf-8"?>
<!-- Generator: Adobe Illustrator 21.1.0, SVG Export Plug-In . SVG Version: 6.00 Build 0)  -->
<svg version="1.1" id="Слой_1" xmlns="http://www.w3.org/2000/svg" xmlns:xlink="http://www.w3.org/1999/xlink" x="0px" y="0px"
	 width="51px" height="51px" viewBox="0 0 51 51" style="enable-background:new 0 0 51 51;" xml:space="preserve">
<style type="text/css">
	.st0{fill:none;stroke:#064F78;}
	.st1{fill:none;stroke:#064F78;stroke-linejoin:bevel;}
</style>
<circle class="st0" cx="25.5" cy="25.5" r="25"/>
<path class="st0" d="M21.6,27.4c-1.9,2.3-3,3-4.2,4.9c-1.2,2-1.1,7.2,6.1,5.3c0.8-0.3,2.7-0.8,4.6,0c4.8,2,8.2-2,4.9-5.7
	c-3-3.4-4.1-4.8-4.9-5.7c-0.7-0.7-1.5-1.1-2.7-1.1C24.3,25.1,23.5,25.1,21.6,27.4z"/>
<path class="st0" d="M12.9,20.2c-0.9,2.3-1.6,7.6,1.9,8.3c3.4,0.8,3.4-3.8,2.3-5.3c-0.8-1.1-2.3-1.5-3.8-0.8
	C13,22,12.6,20.8,12.9,20.2z"/>
<path class="st0" d="M35.6,28.9c3.5-0.8,2.8-6.1,1.9-8.3c0.1,0.8-0.4,1.8-0.7,2.3c-1.5-0.8-2.7-0.3-3.5,0.8
	C32.2,25.1,32.2,29.7,35.6,28.9z"/>
<path class="st1" d="M21.5,23.6c-0.8,0-2.9-0.3-3.8-3c-0.2-0.7-0.8-3,1-4.6c-0.1-1,0.1-2.2,0.9-3c0,0.8,0.2,2.4,0.8,2.7
	c1.1,0,3,0.8,3.4,3.8C24.2,22.5,22.5,23.6,21.5,23.6z"/>
<path class="st1" d="M28.9,24c0.8,0,2.9-0.3,3.8-3c0.2-0.7,0.8-3-1-4.6c0.1-1-0.1-2.2-0.9-3c0,0.8-0.2,2.4-0.8,2.7
	c-1.1,0-3,0.8-3.4,3.8C26.2,22.9,27.9,24,28.9,24z"/>
</svg>
