<?xml version="1.0" encoding="utf-8"?>
<!-- Generator: Adobe Illustrator 21.1.0, SVG Export Plug-In . SVG Version: 6.00 Build 0)  -->
<svg version="1.1" id="Слой_1" xmlns="http://www.w3.org/2000/svg" xmlns:xlink="http://www.w3.org/1999/xlink" x="0px" y="0px"
	 width="51px" height="51px" viewBox="0 0 51 51" style="enable-background:new 0 0 51 51;" xml:space="preserve">
<style type="text/css">
	.st0{fill:none;stroke:#064F78;}
</style>
<path class="st0" d="M41,6l-9,9.5h-9.5l-9,6c-0.5,0.5-1.2,1.6,0,2s5.2-1.8,7-3H30c-1.7,0-8-0.5-7.5,2.5c0.2,1.5,1.5,1.5,4,1.5H33
	c1.5,0,1.8-0.3,3-1.5s7-8,10-11.5"/>
<path class="st0" d="M8.5,27c2.3,1.8,10.6,5.3,25,4.5 M14,29.5C15,33,21.1,36,27.5,36S38,32.8,39,31.5c0,0-0.5-1-4.5-3s-10.3-1-13,0
	v-1C18.7,27.5,16.5,28.2,14,29.5z"/>
<circle class="st0" cx="25.5" cy="25.5" r="25"/>
</svg>
