<?xml version="1.0" encoding="utf-8"?>
<!-- Generator: Adobe Illustrator 21.1.0, SVG Export Plug-In . SVG Version: 6.00 Build 0)  -->
<svg version="1.1" id="Слой_1" xmlns="http://www.w3.org/2000/svg" xmlns:xlink="http://www.w3.org/1999/xlink" x="0px" y="0px"
	 width="51px" height="51px" viewBox="0 0 51 51" style="enable-background:new 0 0 51 51;" xml:space="preserve">
<style type="text/css">
	.st0{fill:#064F78;}
	.st1{fill:none;stroke:#064F78;}
</style>
<path class="st0" d="M23.7,27.6c0,0.7-0.2,1.3-0.5,1.8c-0.3,0.5-0.8,0.7-1.4,0.7c-0.6,0-1.1-0.2-1.4-0.6v2.4h-0.8v-6.8h0.8l0,0.5
	c0.3-0.4,0.8-0.6,1.4-0.6c0.6,0,1.1,0.2,1.4,0.7C23.5,26.1,23.7,26.7,23.7,27.6L23.7,27.6z M22.9,27.5c0-0.6-0.1-1-0.4-1.3
	c-0.2-0.3-0.6-0.5-1-0.5c-0.5,0-0.9,0.2-1.1,0.7v2.3c0.3,0.4,0.6,0.7,1.2,0.7c0.4,0,0.7-0.2,1-0.5C22.7,28.6,22.9,28.1,22.9,27.5z
	 M26.8,30.1c-0.7,0-1.2-0.2-1.6-0.7c-0.4-0.4-0.6-1-0.6-1.8v-0.2c0-0.5,0.1-0.9,0.3-1.3c0.2-0.4,0.4-0.7,0.8-0.9
	c0.3-0.2,0.7-0.3,1.1-0.3c0.6,0,1.1,0.2,1.5,0.6c0.4,0.4,0.5,1,0.5,1.8v0.3h-3.3c0,0.5,0.2,0.9,0.4,1.2c0.3,0.3,0.6,0.4,1,0.4
	c0.3,0,0.5-0.1,0.8-0.2c0.2-0.1,0.4-0.3,0.5-0.5l0.5,0.4C28.2,29.8,27.6,30.1,26.8,30.1z M26.7,25.7c-0.3,0-0.6,0.1-0.9,0.4
	c-0.2,0.2-0.4,0.6-0.4,1h2.5V27c0-0.4-0.1-0.8-0.3-1C27.3,25.8,27,25.7,26.7,25.7z M30.8,23.9v1.2h0.9v0.6h-0.9v3
	c0,0.2,0,0.3,0.1,0.4c0.1,0.1,0.2,0.1,0.4,0.1c0.1,0,0.2,0,0.4-0.1V30c-0.2,0.1-0.4,0.1-0.6,0.1c-0.4,0-0.7-0.1-0.8-0.3
	c-0.2-0.2-0.3-0.5-0.3-1v-3h-0.9v-0.6H30v-1.2H30.8z M11.3,38v-4.3h-0.8v-0.6h0.8v-0.5c0-0.5,0.1-0.9,0.4-1.2
	c0.3-0.3,0.7-0.4,1.2-0.4c0.2,0,0.4,0,0.6,0.1l0,0.7c-0.1,0-0.3,0-0.5,0c-0.3,0-0.5,0.1-0.6,0.2c-0.1,0.2-0.2,0.4-0.2,0.7v0.5h1v0.6
	h-1V38H11.3z M16.5,33.9c-0.1,0-0.3,0-0.4,0c-0.5,0-0.9,0.2-1.1,0.7V38h-0.8v-4.9h0.8l0,0.6c0.3-0.4,0.7-0.7,1.2-0.7
	c0.2,0,0.3,0,0.4,0.1V33.9z M18.1,38h-0.8v-4.9h0.8V38z M17.2,31.8c0-0.1,0-0.3,0.1-0.3c0.1-0.1,0.2-0.1,0.4-0.1s0.3,0,0.4,0.1
	c0.1,0.1,0.1,0.2,0.1,0.3c0,0.1,0,0.2-0.1,0.3c-0.1,0.1-0.2,0.1-0.4,0.1s-0.3,0-0.4-0.1C17.3,32.1,17.2,31.9,17.2,31.8z M21.5,38.1
	c-0.7,0-1.2-0.2-1.6-0.7c-0.4-0.4-0.6-1-0.6-1.8v-0.2c0-0.5,0.1-0.9,0.3-1.3c0.2-0.4,0.4-0.7,0.8-0.9c0.3-0.2,0.7-0.3,1.1-0.3
	c0.6,0,1.1,0.2,1.5,0.6c0.4,0.4,0.5,1,0.5,1.8v0.3h-3.3c0,0.5,0.2,0.9,0.4,1.2c0.3,0.3,0.6,0.4,1,0.4c0.3,0,0.5-0.1,0.8-0.2
	c0.2-0.1,0.4-0.3,0.5-0.5l0.5,0.4C23,37.8,22.3,38.1,21.5,38.1z M21.4,33.7c-0.3,0-0.6,0.1-0.9,0.4c-0.2,0.2-0.4,0.6-0.4,1h2.5V35
	c0-0.4-0.1-0.8-0.3-1C22,33.8,21.8,33.7,21.4,33.7z M25.2,33.1l0,0.6c0.4-0.5,0.9-0.7,1.5-0.7c1,0,1.6,0.6,1.6,1.8V38h-0.8v-3.2
	c0-0.4-0.1-0.6-0.2-0.8c-0.2-0.2-0.4-0.3-0.7-0.3c-0.3,0-0.5,0.1-0.7,0.2c-0.2,0.1-0.4,0.3-0.5,0.6V38h-0.8v-4.9H25.2z M29.3,35.5
	c0-0.8,0.2-1.4,0.5-1.8c0.4-0.5,0.8-0.7,1.4-0.7c0.6,0,1,0.2,1.4,0.6V31h0.8v7h-0.8l0-0.5c-0.3,0.4-0.8,0.6-1.4,0.6
	c-0.6,0-1-0.2-1.4-0.7C29.5,36.9,29.3,36.3,29.3,35.5L29.3,35.5z M30.2,35.6c0,0.6,0.1,1,0.3,1.3s0.5,0.5,1,0.5
	c0.5,0,0.9-0.2,1.2-0.7v-2.3c-0.3-0.5-0.6-0.7-1.2-0.7c-0.4,0-0.7,0.2-1,0.5C30.3,34.5,30.2,35,30.2,35.6z M35.7,38h-0.8v-7h0.8V38z
	 M38.6,36.8l1.1-3.7h0.9l-2,5.7c-0.3,0.8-0.8,1.2-1.5,1.2l-0.2,0l-0.3-0.1v-0.7l0.2,0c0.3,0,0.5-0.1,0.7-0.2
	c0.2-0.1,0.3-0.3,0.4-0.6l0.2-0.5l-1.7-4.8h0.9L38.6,36.8z"/>
<path class="st1" d="M22,20.7c-2-0.7-2.3-3.5-0.7-4.8c1.5-1.2,1-0.7,2.4-2.1c1.2-1.2,2.1-0.9,3,0c0.6,0.6,1.4,2,2.4,2.7
	c1.2,0.9,1.4,4-0.3,4.2c-1.7,0.2-2-0.2-3.8-0.2C23.1,20.5,22.7,21,22,20.7z"/>
<circle class="st1" cx="19.5" cy="13.5" r="1"/>
<circle class="st1" cx="22.5" cy="10.5" r="1"/>
<circle class="st1" cx="27.3" cy="10.5" r="1"/>
<circle class="st1" cx="30.4" cy="13.5" r="1"/>
<circle class="st1" cx="25.5" cy="25.5" r="25"/>
</svg>
