<?xml version="1.0" encoding="utf-8"?>
<!-- Generator: Adobe Illustrator 21.1.0, SVG Export Plug-In . SVG Version: 6.00 Build 0)  -->
<svg version="1.1" id="Слой_1" xmlns="http://www.w3.org/2000/svg" xmlns:xlink="http://www.w3.org/1999/xlink" x="0px" y="0px"
	 width="51px" height="51px" viewBox="0 0 51 51" style="enable-background:new 0 0 51 51;" xml:space="preserve">
<style type="text/css">
	.st0{fill:none;stroke:#064F78;}
	.st1{fill:#064F78;}
</style>
<path class="st0" d="M12.1,36.5H39"/>
<path class="st0" d="M24.5,33v2"/>
<path class="st0" d="M31.5,36.5v-23h-12v23"/>
<path class="st1" d="M14.5,33c1.1,0,2-0.9,2-2c0-1.1-0.9-2-2-2c-1.1,0-2,0.9-2,2C12.5,32.1,13.4,33,14.5,33z M14.5,34
	c1.7,0,3-1.3,3-3c0-1.7-1.3-3-3-3c-1.7,0-3,1.3-3,3C11.5,32.7,12.9,34,14.5,34z"/>
<path class="st0" d="M14.5,33.5l-0.1,3"/>
<path class="st1" d="M36.6,33c1.1,0,2-0.9,2-2c0-1.1-0.9-2-2-2s-2,0.9-2,2C34.6,32.1,35.5,33,36.6,33z M36.6,34c1.7,0,3-1.3,3-3
	c0-1.7-1.3-3-3-3s-3,1.3-3,3C33.6,32.7,34.9,34,36.6,34z"/>
<path class="st0" d="M36.6,33.6v2.9"/>
<path class="st0" d="M22.5,16v2"/>
<path class="st0" d="M24.6,16v2"/>
<path class="st0" d="M26.5,16v2"/>
<path class="st0" d="M28.5,16v2"/>
<path class="st0" d="M22.5,20v2"/>
<path class="st0" d="M24.6,20v2"/>
<path class="st0" d="M26.5,20v2"/>
<path class="st0" d="M28.5,20v2"/>
<path class="st0" d="M22.5,23.9v2"/>
<path class="st0" d="M24.6,23.9v2"/>
<path class="st0" d="M26.5,23.9v2"/>
<path class="st0" d="M28.5,23.9v2"/>
<path class="st0" d="M22.5,28v2"/>
<path class="st0" d="M24.6,28v2"/>
<path class="st0" d="M26.5,28v2"/>
<path class="st0" d="M28.5,28v2"/>
<circle class="st0" cx="25.5" cy="25.5" r="25"/>
</svg>
