<?xml version="1.0" encoding="utf-8"?>
<!-- Generator: Adobe Illustrator 21.1.0, SVG Export Plug-In . SVG Version: 6.00 Build 0)  -->
<svg version="1.1" id="Слой_1" xmlns="http://www.w3.org/2000/svg" xmlns:xlink="http://www.w3.org/1999/xlink" x="0px" y="0px"
	 width="51px" height="51px" viewBox="0 0 51 51" style="enable-background:new 0 0 51 51;" xml:space="preserve">
<style type="text/css">
	.st0{fill:none;filter:url(#Adobe_OpacityMaskFilter);stroke:#5C2D82;}
	.st1{mask:url(#mask0);}
	.st2{fill:#064F78;stroke:#064F78;}
	.st3{fill:none;stroke:#064F78;}
	.st4{fill:none;filter:url(#Adobe_OpacityMaskFilter_1_);stroke:#5C2D82;}
	.st5{fill:none;stroke:#5C2D82;}
	.st6{mask:url(#mask1);}
	.st7{fill:#064F78;}
</style>
<defs>
	<filter id="Adobe_OpacityMaskFilter" filterUnits="userSpaceOnUse" x="22" y="21" width="14" height="14">
		<feColorMatrix  type="matrix" values="1 0 0 0 0  0 1 0 0 0  0 0 1 0 0  0 0 0 1 0"/>
	</filter>
</defs>
<mask maskUnits="userSpaceOnUse" x="22" y="21" width="14" height="14" id="mask0">
	<path class="st0" d="M35,21l-15,9 M36,22.5l-15,9 M37.5,24l-15,9 M39,25.5l-15,9 M40.5,27l-15,9 M42,28l-15,9 M33.5,19.5l-15,9
		 M32,18l-15,9"/>
</mask>
<g class="st1">
	<circle class="st2" cx="29" cy="28" r="6.5"/>
</g>
<path class="st3" d="M31.5,22.5C32,22,32,20.7,32,20c0-3.9-3.1-7-7-7s-7,3.1-7,7c0,3.2,2.1,5.8,5,6.7"/>
<defs>
	<filter id="Adobe_OpacityMaskFilter_1_" filterUnits="userSpaceOnUse" x="13" y="22.8" width="14.4" height="16">
		<feColorMatrix  type="matrix" values="1 0 0 0 0  0 1 0 0 0  0 0 1 0 0  0 0 0 1 0"/>
	</filter>
</defs>
<mask maskUnits="userSpaceOnUse" x="13" y="22.8" width="14.4" height="16" id="mask1">
	<path class="st4" d="M19.5,24c-3.1,0.7-5.5,3.5-5.5,6.8c0,3.9,3.1,7,7,7s7-3.1,7-7c0-1-0.5-3-1-4"/>
	<circle class="st5" cx="21" cy="30.8" r="4.5"/>
	<circle class="st5" cx="21" cy="30.8" r="2.5"/>
	<circle class="st5" cx="21" cy="30.8" r="0.5"/>
</mask>
<g class="st6">
	<path class="st7" d="M24.4,23.6c-1-0.5-2.2-0.7-3.4-0.7c-4.4,0-8,3.6-8,8c0,4.4,3.6,8,8,8c2.6,0,4.9-1.3,6.4-3.2
		c-3.1-0.7-5.4-3.5-5.4-6.8C22,26.7,22.9,24.9,24.4,23.6z"/>
</g>
<circle class="st3" cx="25.5" cy="25.5" r="25"/>
</svg>
