<?xml version="1.0" encoding="utf-8"?>
<!-- Generator: Adobe Illustrator 21.1.0, SVG Export Plug-In . SVG Version: 6.00 Build 0)  -->
<svg version="1.1" id="Слой_1" xmlns="http://www.w3.org/2000/svg" xmlns:xlink="http://www.w3.org/1999/xlink" x="0px" y="0px"
	 width="51px" height="51px" viewBox="0 0 51 51" style="enable-background:new 0 0 51 51;" xml:space="preserve">
<style type="text/css">
	.st0{fill:none;stroke:#064F78;}
</style>
<path class="st0" d="M36,14c2.5,0,2.5-2,2.5-3c0,2.4,0.5,3,2.5,3c-2,0-2.5,1.8-2.5,3C38.5,15,37,14,36,14z"/>
<path class="st0" d="M12,36c2.5,0,2.5-2,2.5-3c0,2.4,0.5,3,2.5,3c-2,0-2.5,1.8-2.5,3C14.5,37,13,36,12,36z"/>
<path class="st0" d="M3,22.5c1,0,1-1,1-1.5c0,1.2,0.2,1.5,1,1.5c-0.8,0-1,0.9-1,1.5C4,23,3.4,22.5,3,22.5z"/>
<path class="st0" d="M15,10.5c1,0,1-1,1-1.5c0,1.2,0.2,1.5,1,1.5c-0.8,0-1,0.9-1,1.5C16,11,15.4,10.5,15,10.5z"/>
<path class="st0" d="M2,17.5c3.8-2.2,14-5.1,24,0.5 M8,29c1.5-1,5.3-2.4,8.5,0"/>
<path class="st0" d="M34,22l-6.5-5.5L15,30.5l7,6"/>
<path class="st0" d="M36,34.5l4.5-4c0.5-0.5,1.8-1.4,2.5,0c0.5,1-0.5,2.2-1,2.5l-8.5,7.5c-1.3,1.2-4.9,2.9-8.5,0.5
	c-4.5-3-3.5-7.5-2-9.5c1.2-1.6,1.5-5,1.5-6.5c0-1-0.5-2,0.5-2.5c2-1,2.9,1.5,3,2.5c0.1,1.3-0.2,2.3-0.5,3.5c2.4-2.2,5.5-6,7.5-6.5
	c1.9-0.5,2.3,1.2,2.2,1.8 M40.9,30.2c0.7-0.5,2.1-2.2,1.6-3.2c-0.5-1-1.3-1-2-0.7 M34,32c1.7-1.7,5.2-5.1,6-5.5
	c0.2-0.1,0.3-0.2,0.5-0.2 M40.5,26.3C41,25.7,41,24,40,23.5c-1.4-0.7-2.3-0.2-2.8,0.3 M31,30l6-6c0-0.1,0.1-0.2,0.2-0.2"/>
<circle class="st0" cx="25.5" cy="25.5" r="25"/>
</svg>
