<?xml version="1.0" encoding="utf-8"?>
<!-- Generator: Adobe Illustrator 21.1.0, SVG Export Plug-In . SVG Version: 6.00 Build 0)  -->
<svg version="1.1" id="Слой_1" xmlns="http://www.w3.org/2000/svg" xmlns:xlink="http://www.w3.org/1999/xlink" x="0px" y="0px"
	 width="51px" height="51px" viewBox="0 0 51 51" style="enable-background:new 0 0 51 51;" xml:space="preserve">
<style type="text/css">
	.st0{fill:none;stroke:#064F78;}
	.st1{fill:none;stroke:#064F78;stroke-linejoin:bevel;}
</style>
<path class="st0" d="M12.5,20.1c1-1,3.6-3,6-3c3,0,3.5,3.5,6,3s3-3.5,6-3s3.5,4.5,6.5,2.5c2.4-1.6,3-2,3-2"/>
<path class="st1" d="M15,28.1l1,3.5l1-3.5"/>
<path class="st1" d="M18,28.1l1,3.5l1-3.5"/>
<path class="st1" d="M21,28.1l1,3.5l1-3.5"/>
<path class="st1" d="M24,28.1l1,3.5l1-3.5"/>
<path class="st1" d="M27,28.1l1,3.5l1-3.5"/>
<path class="st1" d="M30,28.1l1,3.5l1-3.5"/>
<path class="st1" d="M33,28.1l1,3.5l1-3.5"/>
<path class="st1" d="M36,28.1l1,3.5l1-3.5"/>
<path class="st0" d="M14,28.1l-1.5,4.5H40l-1-4.5"/>
<rect x="12.5" y="22.6" class="st0" width="28" height="5.9"/>
<circle class="st0" cx="25.5" cy="25.5" r="25"/>
</svg>
