<?xml version="1.0" encoding="utf-8"?>
<!-- Generator: Adobe Illustrator 21.1.0, SVG Export Plug-In . SVG Version: 6.00 Build 0)  -->
<svg version="1.1" id="Слой_1" xmlns="http://www.w3.org/2000/svg" xmlns:xlink="http://www.w3.org/1999/xlink" x="0px" y="0px"
	 width="51px" height="51px" viewBox="0 0 51 51" style="enable-background:new 0 0 51 51;" xml:space="preserve">
<style type="text/css">
	.st0{fill:none;stroke:#064F78;}
</style>
<path class="st0" d="M15.1,32L13,27.6L41.9,16l2.1,4.4L15.1,32z"/>
<path class="st0" d="M9,29l2.5,5.5"/>
<path class="st0" d="M11,28l2.5,5.5"/>
<path class="st0" d="M8.5,28c-0.5-1-2.5-3.5,1-8.5c1.6-2.3,1.8-3.9,1.6-5.2"/>
<path class="st0" d="M10.5,27c-0.5-1-1.8-3,1-7c3.5-5,0.9-9,0.4-10"/>
<path class="st0" d="M13.5,8.5c2,2.5,3.3,7.1,0.5,11.5"/>
<circle class="st0" cx="25.5" cy="25.5" r="25"/>
</svg>
