<?xml version="1.0" encoding="utf-8"?>
<!-- Generator: Adobe Illustrator 21.1.0, SVG Export Plug-In . SVG Version: 6.00 Build 0)  -->
<svg version="1.1" id="Слой_1" xmlns="http://www.w3.org/2000/svg" xmlns:xlink="http://www.w3.org/1999/xlink" x="0px" y="0px"
	 width="51px" height="51px" viewBox="0 0 51 51" style="enable-background:new 0 0 51 51;" xml:space="preserve">
<style type="text/css">
	.st0{fill:#064F78;}
	.st1{fill:none;stroke:#064F78;}
</style>
<path class="st0" d="M32.6,26.3l0.4-0.2L32.6,26.3z M34.9,12.4c0-0.3-0.2-0.5-0.5-0.5l-4.5,0.2c-0.3,0-0.5,0.2-0.5,0.5
	c0,0.3,0.2,0.5,0.5,0.5l4-0.2l0.2,4c0,0.3,0.2,0.5,0.5,0.5c0.3,0,0.5-0.2,0.5-0.5L34.9,12.4z M30.6,37.6c0.4,0.4,0.4,0.4,0.4,0.4
	c0,0,0,0,0,0c0,0,0,0,0,0c0,0,0,0,0,0c0,0,0,0,0,0c0,0,0,0,0-0.1c0,0,0.1-0.1,0.2-0.2c0.1-0.2,0.3-0.4,0.6-0.7
	c0.5-0.6,1-1.5,1.5-2.6c0.9-2.2,1.5-5.1-0.2-8.3l-0.9,0.5c1.5,2.8,1.1,5.5,0.2,7.5c-0.4,1-1,1.8-1.4,2.4c-0.2,0.3-0.4,0.5-0.5,0.6
	c-0.1,0.1-0.1,0.1-0.1,0.2c0,0,0,0,0,0c0,0,0,0,0,0c0,0,0,0,0,0c0,0,0,0,0,0c0,0,0,0,0,0C30.2,37.2,30.2,37.2,30.6,37.6z M33,26.1
	c-1.6-3-2.1-5.2-1.8-7.2c0.3-2,1.5-3.9,3.6-6.2L34,12.1c-2.1,2.3-3.5,4.4-3.8,6.7c-0.4,2.3,0.3,4.7,1.9,7.8L33,26.1z"/>
<path class="st0" d="M25.7,26.3l0.4-0.2l0,0L25.7,26.3z M28,12.4c0-0.3-0.2-0.5-0.5-0.5L23,12c-0.3,0-0.5,0.2-0.5,0.5
	c0,0.3,0.2,0.5,0.5,0.5l4-0.1l0.1,4c0,0.3,0.2,0.5,0.5,0.5c0.3,0,0.5-0.2,0.5-0.5L28,12.4z M23.7,37.6c0.3,0.4,0.3,0.4,0.3,0.4
	c0,0,0,0,0,0c0,0,0,0,0,0c0,0,0,0,0,0c0,0,0,0,0,0c0,0,0,0,0.1-0.1c0,0,0.1-0.1,0.2-0.2c0.2-0.2,0.4-0.4,0.6-0.7
	c0.5-0.6,1.1-1.5,1.6-2.6c1-2.2,1.5-5.2-0.3-8.4l-0.9,0.5c1.6,2.9,1.2,5.5,0.3,7.5c-0.4,1-1,1.8-1.4,2.3c-0.2,0.3-0.4,0.5-0.5,0.6
	c-0.1,0.1-0.1,0.1-0.2,0.2c0,0,0,0,0,0c0,0,0,0,0,0c0,0,0,0,0,0c0,0,0,0,0,0c0,0,0,0,0,0C23.3,37.2,23.3,37.2,23.7,37.6z M26.1,26.1
	c-1.7-3-2.3-5.2-2-7.2c0.3-2,1.5-3.8,3.7-6.1l-0.7-0.7c-2.2,2.3-3.6,4.4-4,6.7c-0.4,2.3,0.4,4.8,2.1,7.8L26.1,26.1z"/>
<path class="st0" d="M18.7,26.3l0.4-0.2l0,0L18.7,26.3z M21,12.4c0-0.3-0.2-0.5-0.5-0.5L16,12.1c-0.3,0-0.5,0.2-0.5,0.5
	c0,0.3,0.2,0.5,0.5,0.5l4-0.2l0.2,4c0,0.3,0.2,0.5,0.5,0.5c0.3,0,0.5-0.2,0.5-0.5L21,12.4z M16.6,37.6c0.4,0.4,0.4,0.4,0.4,0.4
	c0,0,0,0,0,0c0,0,0,0,0,0c0,0,0,0,0,0c0,0,0,0,0,0c0,0,0,0,0-0.1c0,0,0.1-0.1,0.2-0.2c0.1-0.2,0.3-0.4,0.6-0.7
	c0.5-0.6,1-1.5,1.5-2.6c0.9-2.2,1.5-5.1-0.2-8.3l-0.9,0.5c1.5,2.8,1.1,5.5,0.2,7.5c-0.4,1-1,1.8-1.4,2.4c-0.2,0.3-0.4,0.5-0.5,0.6
	c-0.1,0.1-0.1,0.1-0.1,0.2c0,0,0,0,0,0c0,0,0,0,0,0c0,0,0,0,0,0c0,0,0,0,0,0l0,0C16.3,37.2,16.3,37.2,16.6,37.6z M19.1,26
	c-1.6-3-2.1-5.2-1.8-7.2c0.3-2,1.5-3.9,3.6-6.2L20.1,12c-2.1,2.3-3.5,4.4-3.8,6.7c-0.4,2.3,0.3,4.7,1.9,7.8L19.1,26z"/>
<path class="st1" d="M9,25.5h32"/>
<circle class="st1" cx="25.5" cy="25.5" r="25"/>
</svg>
