<?xml version="1.0" encoding="utf-8"?>
<!-- Generator: Adobe Illustrator 21.1.0, SVG Export Plug-In . SVG Version: 6.00 Build 0)  -->
<svg version="1.1" id="Слой_1" xmlns="http://www.w3.org/2000/svg" xmlns:xlink="http://www.w3.org/1999/xlink" x="0px" y="0px"
	 width="51px" height="51px" viewBox="0 0 51 51" style="enable-background:new 0 0 51 51;" xml:space="preserve">
<style type="text/css">
	.st0{fill:none;stroke:#064F78;}
</style>
<path class="st0" d="M10,30.7c5,0,5.7-4.2,5.7-6.5c0,5.1,3.2,6.2,5.2,6.5c-5,0.2-5.1,3.9-5.2,6.2l0,0C15.7,31.1,12.4,30.7,10,30.7z"
	/>
<path class="st0" d="M18.3,20c7.4,0,8.6-6.2,8.6-9.6c0,7.5,4.6,9.1,7.6,9.6c-7.4,0.3-7.4,5.7-7.6,9.1C26.9,20.6,21.9,20,18.3,20z"/>
<path class="st0" d="M28.2,36.2c3.1,0,3.4-2.9,3.4-4.4c0,3.9,2.1,4.4,3.4,4.4c-3.2,0-3.3,2.4-3.4,3.9C31.6,36.3,29.7,36.2,28.2,36.2
	z"/>
<circle class="st0" cx="25.5" cy="25.5" r="25"/>
</svg>
