<?xml version="1.0" encoding="utf-8"?>
<!-- Generator: Adobe Illustrator 21.1.0, SVG Export Plug-In . SVG Version: 6.00 Build 0)  -->
<svg version="1.1" id="Слой_1" xmlns="http://www.w3.org/2000/svg" xmlns:xlink="http://www.w3.org/1999/xlink" x="0px" y="0px"
	 width="51px" height="51px" viewBox="0 0 51 51" style="enable-background:new 0 0 51 51;" xml:space="preserve">
<style type="text/css">
	.st0{fill:#064F78;}
	.st1{fill:none;stroke:#064F78;}
</style>
<path class="st0" d="M13.8,35H13v-3H9.6v3H8.8v-6.6h0.9v2.8H13v-2.8h0.9V35z M15,32.5c0-0.5,0.1-0.9,0.3-1.3
	c0.2-0.4,0.5-0.7,0.8-0.9c0.3-0.2,0.7-0.3,1.2-0.3c0.7,0,1.2,0.2,1.6,0.7c0.4,0.5,0.6,1.1,0.6,1.8v0.1c0,0.5-0.1,0.9-0.3,1.3
	c-0.2,0.4-0.4,0.7-0.8,0.9c-0.3,0.2-0.7,0.3-1.2,0.3c-0.7,0-1.2-0.2-1.6-0.7C15.2,33.9,15,33.3,15,32.5L15,32.5z M15.9,32.6
	c0,0.5,0.1,1,0.4,1.3c0.3,0.3,0.6,0.5,1,0.5c0.4,0,0.8-0.2,1-0.5c0.3-0.3,0.4-0.8,0.4-1.4c0-0.5-0.1-1-0.4-1.3
	c-0.3-0.3-0.6-0.5-1-0.5c-0.4,0-0.7,0.2-1,0.5C16,31.5,15.9,32,15.9,32.6z M23.1,32.3h-1.5V35h-0.9v-6.6h2.2c0.7,0,1.3,0.2,1.7,0.5
	c0.4,0.3,0.6,0.8,0.6,1.5c0,0.4-0.1,0.8-0.3,1.1c-0.2,0.3-0.5,0.5-0.9,0.7l1.5,2.8V35h-0.9L23.1,32.3z M21.5,31.6h1.3
	c0.4,0,0.8-0.1,1-0.3c0.3-0.2,0.4-0.5,0.4-0.9c0-0.4-0.1-0.7-0.4-0.9c-0.2-0.2-0.6-0.3-1.1-0.3h-1.3V31.6z M28.3,35.1
	c-0.7,0-1.2-0.2-1.6-0.7c-0.4-0.4-0.6-1-0.6-1.8v-0.2c0-0.5,0.1-0.9,0.3-1.3c0.2-0.4,0.4-0.7,0.8-0.9c0.3-0.2,0.7-0.3,1.1-0.3
	c0.6,0,1.1,0.2,1.5,0.6c0.4,0.4,0.5,1,0.5,1.8v0.3h-3.3c0,0.5,0.2,0.9,0.4,1.2c0.3,0.3,0.6,0.4,1,0.4c0.3,0,0.5-0.1,0.8-0.2
	c0.2-0.1,0.4-0.3,0.5-0.5l0.5,0.4C29.7,34.8,29.1,35.1,28.3,35.1z M28.2,30.7c-0.3,0-0.6,0.1-0.9,0.4c-0.2,0.2-0.4,0.6-0.4,1h2.5V32
	c0-0.4-0.1-0.8-0.3-1C28.8,30.8,28.5,30.7,28.2,30.7z M36.1,32.9c-0.1,0.7-0.3,1.2-0.8,1.6c-0.4,0.4-1,0.6-1.7,0.6
	c-0.8,0-1.4-0.3-1.9-0.8c-0.5-0.6-0.7-1.3-0.7-2.2v-0.6c0-0.6,0.1-1.2,0.3-1.6c0.2-0.5,0.5-0.8,0.9-1.1c0.4-0.3,0.9-0.4,1.4-0.4
	c0.7,0,1.3,0.2,1.7,0.6c0.4,0.4,0.7,0.9,0.7,1.6h-0.9c-0.1-0.5-0.2-0.9-0.5-1.1c-0.3-0.2-0.6-0.4-1.1-0.4c-0.6,0-1,0.2-1.3,0.6
	c-0.3,0.4-0.5,1-0.5,1.8V32c0,0.7,0.1,1.3,0.4,1.7c0.3,0.4,0.7,0.6,1.3,0.6c0.5,0,0.9-0.1,1.1-0.3c0.3-0.2,0.4-0.6,0.5-1.1H36.1z
	 M40.2,35c0-0.1-0.1-0.3-0.1-0.5c-0.4,0.4-0.9,0.6-1.4,0.6c-0.5,0-0.9-0.1-1.2-0.4c-0.3-0.3-0.5-0.6-0.5-1c0-0.5,0.2-0.9,0.6-1.2
	c0.4-0.3,0.9-0.4,1.6-0.4h0.8v-0.4c0-0.3-0.1-0.5-0.3-0.7c-0.2-0.2-0.4-0.3-0.8-0.3c-0.3,0-0.5,0.1-0.8,0.2
	c-0.2,0.2-0.3,0.3-0.3,0.5h-0.8c0-0.2,0.1-0.5,0.3-0.7c0.2-0.2,0.4-0.4,0.7-0.5c0.3-0.1,0.6-0.2,1-0.2c0.6,0,1,0.1,1.3,0.4
	c0.3,0.3,0.5,0.7,0.5,1.2v2.3c0,0.4,0.1,0.8,0.2,1.1V35H40.2z M38.8,34.4c0.3,0,0.5-0.1,0.7-0.2c0.2-0.1,0.4-0.3,0.5-0.5v-1h-0.7
	c-1,0-1.5,0.3-1.5,0.9c0,0.3,0.1,0.5,0.3,0.6C38.3,34.3,38.6,34.4,38.8,34.4z"/>
<path class="st1" d="M18.5,11v16"/>
<path class="st1" d="M16.5,11v6c0.5,2.5,3,3,4,0v-6"/>
<path class="st1" d="M24.5,27V11c3,0.5,4.3,8.3,0.5,10.5"/>
<path class="st1" d="M36.5,11.5h-4c0,0-1.5,4.5-1.5,6.3s2.5,3.2,3.4,3.4c2.7-1.1,3.4-2,3.4-3.4C37.7,16.4,36.5,11.5,36.5,11.5z"/>
<path class="st1" d="M34.5,21v5.5 M34.5,26.5H33 M34.5,26.5H36"/>
<path class="st1" d="M31.5,16.5h6"/>
<circle class="st1" cx="25.5" cy="25.5" r="25"/>
</svg>
